<svg width="159" height="159" fill="none" xmlns="http://www.w3.org/2000/svg"><path fill-rule="evenodd" clip-rule="evenodd" d="M159 79.5c0 43.699-35.538 79.237-79.5 79.237S0 123.199 0 79.5 35.538.263 79.5.263 159 35.801 159 79.5Z" fill="#FFC727"/><path d="M80.667 29.813c-13.402.326-25.497 11.114-29.093 26.478v.327c0 .326 0 .653-.327 1.307-.327.654-.327 1.308-.327 1.635 0 .653.327.98.654 1.634v.327l10.46 3.596c.981.327 1.962-.654 1.962-1.635.98-11.114 10.46-18.96 21.575-17.979 2.288.327 4.25.981 6.21 1.635A32.968 32.968 0 0 1 97.34 59.56l13.729.98c-1.634-14.71-11.114-26.805-24.19-30.074-1.961-.327-3.922-.654-6.21-.654Zm-4.903 8.499c1.308 0 2.942 0 4.25.327 2.942.653 5.883 2.288 8.172 4.25-.98-.328-1.635-.655-2.289-.655-11.768-.98-22.228 7.192-24.516 18.96H60.4l-5.557-1.961c1.307-6.865 4.576-12.422 8.826-16.018 3.596-2.942 7.845-4.576 12.095-4.903Zm21.902 24.517c.327 2.615.327 5.23-.327 7.845-.327 1.307-.654 2.942-.98 3.923-5.558.327-10.462 3.595-14.711 8.172-1.308 1.634-2.288 3.269-3.596 5.23v-.327c-2.615 3.923-4.25 8.826-4.903 14.384a32.616 32.616 0 0 0 1.961 15.363c.654 1.308 1.308 2.289 1.962 3.596 2.941 4.904 8.172 8.173 13.729 8.173.98 0 2.288-.327 3.269-.327 3.923-.327 7.518-2.289 10.46-5.884.327-.327.654-.327.981-.654.327-.327.327-.981.654-.981l.327-.327c.653-.654.98-1.307 1.634-2.288 2.942-3.923 4.904-8.826 5.884-14.056-11.441.98-24.19-4.25-31.708-8.826-.654 1.96-1.308 3.595-1.635 5.884-1.307 6.864-.98 13.729.981 18.632.654 1.308 1.308 2.616 1.961 3.596-1.634-.98-2.942-2.615-3.922-4.249-2.615-4.25-3.923-10.461-3.27-17.326 0-.653 0-1.307.328-1.634v-.654c0-.327.326-.654.326-.98 0-.327.327-.981.327-1.635v-.327c0-.327.327-.654.327-.98.327-.327.327-.981.327-1.308.327-.654.654-1.308.654-1.635 1.307-2.942 2.942-5.557 4.576-7.845 3.27-3.596 6.865-5.884 11.115-6.538v.327c-1.962 1.308-3.923 2.942-5.557 4.903-2.289 2.289-3.923 5.23-5.558 8.827 7.192 4.576 19.941 10.133 31.055 8.826v-4.577c0-4.25-.654-7.845-1.961-10.787-1.308-2.942-2.942-5.23-4.904-6.865.981-2.288 1.635-4.903 2.289-7.519.327-2.615.653-4.903.327-7.518l-12.422-1.634Zm-47.073 1.96c-1.634 5.885-1.961 11.769-.98 17.98-.654.98-1.635 1.961-1.962 3.269-2.615 4.903-3.596 11.114-2.615 17.652.98 6.538 4.25 12.095 8.172 16.018 3.923 3.922 9.153 5.884 14.384 5.23 2.288-.327 4.576-1.308 6.537-2.942a21.77 21.77 0 0 1-3.269-9.807c-1.307 1.635-2.615 2.942-4.903 3.269-2.942.327-5.557-.981-7.518-3.596-1.962-2.288-3.596-5.884-4.25-9.48-.654-3.922-.327-7.518.98-10.46 1.308-2.942 3.27-5.23 6.212-5.557.327 0 .654-.327.98-.327 2.616 0 4.904 1.634 6.538 3.596 1.308 1.634 2.288 3.596 2.942 5.884.98-3.923 2.942-7.192 4.904-10.134-.981-1.308-1.962-2.288-2.942-3.596-3.596-3.269-7.846-5.23-12.422-5.23h-.654c0-2.615 0-5.23.327-7.845l-10.46-3.923Zm11.115 24.518c-1.308.327-2.615 1.634-3.596 3.596-.98 2.288-1.308 5.23-.654 8.499.327 3.269 1.961 6.211 3.596 7.845 1.634 1.961 3.269 2.615 4.576 2.288 1.308-.327 2.615-1.307 3.27-3.595.98-2.289 1.307-5.231.653-8.5-.654-3.269-1.961-6.21-3.596-7.845-1.307-1.961-2.942-2.615-4.25-2.288Z" fill="#fff"/></svg>