<svg width="300" height="199" fill="none" xmlns="http://www.w3.org/2000/svg"><path d="M275.416 115.782h-50.332V53.81h50.332v61.972Zm-48.84-1.484h47.344V55.294h-47.344v59.004Z" fill="#EBEBEB"/><path d="M250.996 55.684h-1.492v59.354h1.492V55.684Z" fill="#EBEBEB"/><path d="M276.772 56.815h-53.04v2.07h53.04v-2.07ZM276.772 59.143h-53.04v2.07h53.04v-2.07ZM276.772 61.471h-53.04v2.07h53.04v-2.07ZM276.772 63.795h-53.04v2.07h53.04v-2.07ZM276.772 66.124h-53.04v2.07h53.04v-2.07ZM276.772 68.452h-53.04v2.07h53.04v-2.07ZM276.772 70.78h-53.04v2.07h53.04v-2.07ZM276.772 73.109h-53.04v2.07h53.04v-2.07ZM276.772 75.437h-53.04v2.07h53.04v-2.07Z" fill="#EBEBEB"/><path d="M272.332 56.393h-.372v32.301h.372V56.393Z" fill="#263238"/><path d="M272.808 90.426h-1.324l.332-1.895h.664l.328 1.895ZM273.676 56.393h-.372v42.462h.372V56.393Z" fill="#263238"/><path d="M274.156 100.248h-1.328l.332-1.894h.664l.332 1.894Z" fill="#263238"/><path d="M279.084 53.519h-57.672v4.33h57.672v-4.33Z" fill="#DBDBDB"/><path d="M54.2 34.22c1.234-7.767-4.095-15.06-11.903-16.288-7.807-1.227-15.136 4.075-16.37 11.843-1.234 7.769 4.095 15.061 11.903 16.289 7.807 1.228 15.136-4.075 16.37-11.843Z" fill="#EBEBEB"/><path d="M40.716 45.905c7.542 0 13.656-6.083 13.656-13.587 0-7.505-6.114-13.588-13.656-13.588-7.542 0-13.656 6.083-13.656 13.588 0 7.504 6.114 13.587 13.656 13.587Z" fill="#DBDBDB"/><path d="M40.716 45.05c7.067 0 12.796-5.7 12.796-12.732 0-7.032-5.729-12.732-12.796-12.732-7.067 0-12.796 5.7-12.796 12.732 0 7.031 5.729 12.732 12.796 12.732Z" fill="#fff"/><path opacity=".5" d="M53.224 29.615C47.396 33.13 37.82 38.89 32.468 42.05a12.742 12.742 0 0 1-3.496-4.677l17.7-16.318a12.803 12.803 0 0 1 4.228 3.56 12.727 12.727 0 0 1 2.324 5.001ZM53.504 32.763a12.472 12.472 0 0 1-.848 4.136L36.7 44.409c-.69-.23-1.36-.52-2-.864 4.804-2.77 13.612-7.813 18.804-10.782Z" fill="#EBEBEB"/><path d="M40.84 20.509h-.248v1.93h.248v-1.93ZM34.89 22.028l-.215.124.97 1.671.215-.123-.97-1.672ZM30.602 26.18l-.124.216 1.688.965.124-.215-1.688-.965ZM30.792 32.194h-1.94v.247h1.94v-.247ZM32.06 37.15l-1.68.966.124.214 1.68-.966-.124-.214ZM35.819 40.69l-.97 1.68.216.123.97-1.679-.216-.123ZM40.84 42.196h-.248v1.93h.248v-1.93ZM45.792 40.81l-.215.124.97 1.672.215-.123-.97-1.672ZM49.376 37.146l-.124.213 1.68.965.124-.213-1.68-.965ZM52.584 32.194h-1.94v.247h1.94v-.247ZM50.933 26.309l-1.68.965.124.214 1.68-.965-.124-.214ZM46.542 22.026l-.97 1.672.216.123.969-1.672-.215-.123Z" fill="#C7C7C7"/><path d="m40.904 21.384.42 11.793-1.212-.016.464-11.78.328.003Z" fill="#C7C7C7"/><path d="m48.284 28.206-7.972 5.063-.58-1.063 8.396-4.29.156.29Z" fill="#A6A6A6"/><path d="M41.132 32.318a.396.396 0 0 1-.247.367.403.403 0 0 1-.545-.29.396.396 0 0 1 .392-.475.4.4 0 0 1 .4.398Z" fill="#C7C7C7"/><path d="M138.684 40.544h48.048v-2.837h-48.048v2.837ZM183.088 40.544h-2.856v9.39h2.856v-9.39Z" fill="#EBEBEB"/><path d="M183.088 40.544h-2.856v2.902h2.856v-2.902Z" fill="#DBDBDB"/><path d="M145.188 40.544h-2.856v9.39h2.856v-9.39Z" fill="#EBEBEB"/><path d="M145.188 40.544h-2.856v2.902h2.856v-2.902Z" fill="#DBDBDB"/><path d="M174.588 37.706V19.613h-4.58v18.093h4.58Z" fill="#C7C7C7"/><path d="M174.588 20.632v-1.986h-4.58v1.986h4.58ZM174.588 23.92v-.737h-4.58v.737h4.58ZM174.592 35.338v-1.99h-5.148v1.99h5.148Z" fill="#DBDBDB"/><path d="M170.008 37.706V16.601h-3.2v21.105h3.2Z" fill="#DBDBDB"/><path d="M169.384 26.702v-8.115h-1.92v8.115h1.92Z" fill="#EBEBEB"/><path d="m146.3 37.72 15.085-14.838-2.25-2.264-15.085 14.838 2.25 2.264Z" fill="#C7C7C7"/><path d="m149.381 33.777 5.8-5.706-1.35-1.358-5.8 5.705 1.35 1.359Z" fill="#DBDBDB"/><path d="M166.812 37.71V21.68h-5.436v16.03h5.436Z" fill="#A6A6A6"/><path d="M166.812 36.011V34.52h-5.436v1.492h5.436ZM166.812 33.54v-.582h-5.436v.581h5.436Z" fill="#C7C7C7"/><path d="M178.344 37.71V22.647h-3.752v15.065h3.752Z" fill="#A6A6A6"/><path d="M178.344 36.114V34.71h-3.752v1.404h3.752ZM178.344 27.155v-1.404h-3.752v1.404h3.752ZM178.34 28.66v-.545h-3.752v.545h3.752Z" fill="#C7C7C7"/><path d="m276.948 128.642-5.248.111-2.664.044c-.892.02-1.788 0-2.68.024h-.176v-.179l-.024-4.466v-.199h.2l5.296.024c1.768 0 3.532.044 5.296.064h.112v.111c0 .756-.032 1.508-.052 2.253l-.06 2.213Zm0 0-.056-2.249c-.02-.74-.044-1.473-.052-2.205l.108.111c-1.764.02-3.528.064-5.296.064l-5.296.024.2-.199v4.454l-.18-.176c.872 0 1.744 0 2.62.02l2.604.068 5.348.088ZM271.04 134.257l-5.248.112-2.668.044c-.888 0-1.784 0-2.676.023h-.176v-4.831h.2l5.296.028c1.764 0 3.532.043 5.296.063h.112v.108c0 .756-.032 1.508-.052 2.252l-.084 2.201Zm0 0-.056-2.248c-.02-.741-.044-1.473-.052-2.205l.108.111c-1.764.02-3.532.064-5.296.064l-5.296.024.2-.199v4.453l-.18-.175c.872 0 1.744 0 2.62.02l2.628.048 5.324.107ZM282.856 134.257l-5.248.112-2.664.044c-.892 0-1.788 0-2.68.023h-.176v-.179l-.024-4.453v-.199h.2l5.296.028c1.768 0 3.532.043 5.296.063h.112v.108c0 .756-.036 1.508-.052 2.252l-.06 2.201Zm0 0-.056-2.248c0-.741-.044-1.473-.052-2.205l.108.111c-1.764.02-3.528.064-5.296.064l-5.296.024.2-.199v4.453l-.18-.175c.876 0 1.744 0 2.62.02l2.632.048 5.32.107ZM125.916 71.668l-5.248.111-2.664.044H115.148v-.179l-.024-4.454v-.199h.2l5.296.024c1.768 0 3.532.044 5.296.064h.112v.107c0 .757-.036 1.505-.056 2.25l-.056 2.232Zm0 0-.056-2.253c0-.74-.044-1.472-.052-2.2l.108.107c-1.764 0-3.528.063-5.296.063l-5.296.028.2-.199-.02 4.454-.18-.18c.872 0 1.744 0 2.62.025l2.632.043 5.34.112ZM120 77.284l-5.248.111-2.668.044c-.888 0-1.784 0-2.676.02h-.176v-.18l-.032-4.445v-.199h.2l5.296.024c1.764 0 3.532.044 5.296.064h.112v.111c0 .756-.032 1.504-.052 2.249l-.052 2.2Zm0 0-.056-2.253c-.02-.74-.044-1.473-.052-2.201l.108.108c-1.764.02-3.532.063-5.296.063l-5.296.028.2-.199-.008 4.454-.18-.18c.872 0 1.744 0 2.62.024l2.628.044 5.332.112ZM131.824 77.284l-5.248.111-2.664.044c-.892 0-1.784 0-2.68.02h-.176v-.18l-.024-4.445v-.199h.2l5.296.024c1.768 0 3.532.044 5.296.064h.112v.111c0 .756-.036 1.504-.052 2.249l-.06 2.2Zm0 0-.056-2.253c0-.74-.044-1.473-.052-2.201l.108.108c-1.764.02-3.528.063-5.296.063l-5.296.028.2-.199-.02 4.454-.18-.18c.876 0 1.744 0 2.62.024l2.632.044 5.34.112ZM39.552 90.744l-5.248.111-2.668.044H28.8v-4.808h.2l5.296.024c1.764 0 3.532.048 5.296.068h.112v.107c0 .757-.032 1.509-.052 2.25l-.1 2.204Zm0 0-.056-2.249c0-.744-.044-1.476-.052-2.205l.108.108c-1.764 0-3.532.064-5.296.068l-5.296.023.2-.199-.02 4.454-.18-.18c.872 0 1.744 0 2.62.025l2.628.044 5.344.111ZM215.144 71.664l-5.248.111-2.664.044c-.892.02-1.788 0-2.68.02h-.176v-.18l-.024-4.453v-.199h.2l5.296.024c1.768 0 3.532.048 5.296.068h.112v.107c0 .757-.032 1.509-.052 2.249l-.06 2.209Zm0 0-.056-2.249c-.02-.744-.044-1.476-.052-2.205l.108.108c-1.764.02-3.528.063-5.296.067l-5.296.024.2-.199-.02 4.454-.18-.18c.872 0 1.744 0 2.62.025l2.632.043 5.34.112ZM276.336 28.41l-5.248.11-2.668.044c-.888 0-1.784 0-2.676.024h-.176V23.756h.2l5.296.024c1.764 0 3.532.048 5.296.068h.112v.108c0 .756-.032 1.508-.052 2.248l-.084 2.205Zm0 0-.056-2.25c-.02-.744-.044-1.476-.052-2.204l.108.107c-1.764 0-3.532.064-5.296.068l-5.296.024.2-.2-.02 4.454-.18-.179c.872 0 1.744 0 2.62.024l2.628.044 5.344.111ZM282.244 34.025l-5.248.111-2.664.044c-.892.02-1.788 0-2.68.024h-.176v-.179l-.024-4.454v-.199h.2l5.296.024c1.768 0 3.532.048 5.296.068h.112v.107c0 .757-.036 1.509-.056 2.25l-.056 2.204Zm0 0-.056-2.249c0-.744-.044-1.476-.052-2.205l.108.108c-1.764.02-3.528.064-5.296.068l-5.296.023.2-.199v4.454l-.18-.18c.872 0 1.744 0 2.62.025l2.632.044 5.32.111ZM27.736 28.413l-5.252.112-2.664.044c-.888 0-1.784 0-2.676.023h-.18V23.76h.204l5.296.028c1.764 0 3.528.044 5.296.064h.108v.108c0 .756-.036 1.508-.052 2.252l-.08 2.201Zm0 0-.06-2.248c0-.74-.044-1.477-.052-2.205l.112.107c-1.768.024-3.532.064-5.296.068l-5.296.024.2-.2-.024 4.454-.176-.155h2.616l2.632.044 5.344.111Z" fill="#EBEBEB"/><path d="M118.184 17.759H78.308v44.265h39.876V17.76Z" fill="#DBDBDB"/><path d="M115.556 20.374h-34.62v39.06h34.62v-39.06Z" fill="#EBEBEB"/><path d="M96.268 27.279H84.064v14.388h12.204V27.279Z" fill="#fff"/><path d="M90.608 28.258a.437.437 0 0 1-.44.438.441.441 0 0 1-.44-.438.437.437 0 0 1 .44-.438.441.441 0 0 1 .44.438Z" fill="#455A64"/><path d="M86.4 30.16c1.236-.095 2.468-.1 3.7-.115 1.232-.016 2.468.02 3.704.115-1.236.096-2.468.1-3.704.116a44.015 44.015 0 0 1-3.7-.116ZM86.4 31.299a17.594 17.594 0 0 1 4.024 0 18.217 18.217 0 0 1-4.024 0ZM86.4 32.433a26.498 26.498 0 0 1 2.572-.111 24.23 24.23 0 0 1 2.572.111 28.713 28.713 0 0 1-5.144 0ZM86.4 33.571c1.072-.087 2.144-.107 3.2-.115a36.457 36.457 0 0 1 3.22.115c-1.072.092-2.148.112-3.22.116a35.668 35.668 0 0 1-3.2-.116ZM86.4 34.71c.932-.092 1.864-.112 2.8-.116.936-.004 1.864.024 2.8.116a31.17 31.17 0 0 1-2.8.115c-.94.004-1.88-.028-2.8-.115ZM86.4 35.848c1.2-.096 2.4-.104 3.576-.116 1.176-.011 2.4 0 3.6.116-1.2.091-2.4.1-3.6.111-1.2.012-2.376-.02-3.576-.111ZM86.4 36.982a23.995 23.995 0 0 1 4.62 0 23.173 23.173 0 0 1-4.62 0ZM86.4 38.12c1.236-.095 2.468-.1 3.7-.115 1.232-.016 2.468.02 3.704.115-1.236.096-2.468.1-3.704.116a44.015 44.015 0 0 1-3.7-.116ZM86.4 39.259c1.236-.096 2.468-.104 3.7-.116 1.232-.012 2.468.02 3.704.116-1.236.095-2.468.1-3.704.111a44.016 44.016 0 0 1-3.7-.111Z" fill="#EBEBEB"/><path d="M112.568 36.25h-14.44v17.026h14.44V36.25Z" fill="#fff"/><path d="M105.784 38.546a.435.435 0 0 1-.527.43.443.443 0 0 1-.345-.347.437.437 0 0 1 .436-.52.438.438 0 0 1 .436.437Z" fill="#455A64"/><path d="M100.148 40.496a11.176 11.176 0 0 1 3.2 0 11.176 11.176 0 0 1-3.2 0ZM100.148 41.79a18.69 18.69 0 0 1 4.148 0 19.354 19.354 0 0 1-4.148 0ZM100.148 43.064a16.594 16.594 0 0 1 3.84 0 16.027 16.027 0 0 1-3.84 0ZM100.148 44.35a16.027 16.027 0 0 1 3.84 0 16.605 16.605 0 0 1-3.84 0ZM100.148 45.63a12.538 12.538 0 0 1 3.336 0 12.11 12.11 0 0 1-3.336 0ZM100.148 46.916a19.822 19.822 0 0 1 4.272 0c-.709.08-1.422.119-2.136.116a19.188 19.188 0 0 1-2.136-.116ZM100.148 48.198a13.984 13.984 0 0 1 3.524 0c-1.17.154-2.354.154-3.524 0ZM100.148 49.483c.733-.08 1.47-.118 2.208-.115.739-.005 1.478.033 2.212.115-.735.08-1.473.12-2.212.116a20.499 20.499 0 0 1-2.208-.116ZM100.148 50.765c1.47-.149 2.95-.149 4.42 0a21.215 21.215 0 0 1-4.42 0ZM106.456 40.496a19.125 19.125 0 0 1 4.196 0 19.125 19.125 0 0 1-4.196 0ZM106.456 41.79a8.307 8.307 0 0 1 2.76 0 8.6 8.6 0 0 1-2.76 0ZM106.456 43.064a17.537 17.537 0 0 1 3.948 0 16.937 16.937 0 0 1-3.948 0ZM106.456 44.35a16.08 16.08 0 0 1 3.844 0 16.629 16.629 0 0 1-3.844 0ZM106.456 45.63a19.803 19.803 0 0 1 4.196 0 19.125 19.125 0 0 1-4.196 0ZM106.456 46.916a12.139 12.139 0 0 1 3.34 0c-.552.08-1.11.119-1.668.116a11.799 11.799 0 0 1-1.672-.116ZM106.456 48.198a17.537 17.537 0 0 1 3.948 0 16.937 16.937 0 0 1-3.948 0ZM106.456 49.483a9.434 9.434 0 0 1 1.544-.131 8.984 8.984 0 0 1 1.528.115 9.39 9.39 0 0 1-1.528.116 9.908 9.908 0 0 1-1.544-.1ZM106.456 50.765a9.698 9.698 0 0 1 2.932 0 9.367 9.367 0 0 1-2.932 0Z" fill="#EBEBEB"/><path d="M102.492 23.323h-7.344v7.307h7.344v-7.307Z" fill="#FF4669"/><path d="M99.256 24.063a.437.437 0 0 1-.523.434.44.44 0 0 1-.348-.343.436.436 0 0 1 .186-.45.442.442 0 0 1 .685.36Z" fill="#455A64"/><path d="M115.528 20.374h-.992v39.103h.992V20.374Z" fill="#C7C7C7"/><path d="m73.976 153.807 25.328-.099 25.332-.032 50.664-.068 50.66.064 25.332.036 25.332.099-25.332.096-25.332.035-50.66.064-50.664-.064-25.332-.035-25.328-.096ZM10.92 99.305l15.04-.096 15.036-.035 30.08-.068 30.076.068 15.04.035 15.036.096-15.036.1-15.04.031-30.076.068-30.08-.068-15.036-.032-15.04-.099Z" fill="#263238"/><path d="M167.308 181.09c59.578 0 107.876-5.305 107.876-11.848 0-6.544-48.298-11.849-107.876-11.849s-107.876 5.305-107.876 11.849c0 6.543 48.298 11.848 107.876 11.848Z" fill="#EBEBEB"/><path d="M214.872 156.004h-16.64v1.883h16.64v-1.883ZM207.54 82.008h-1.972V156h1.972V82.008Z" fill="#37474F"/><path d="M207.54 82.008h-1.972v9.942h1.972v-9.942Z" fill="#263238"/><path d="M216.992 87.767h-20.876l1.516-4.963.052-.175 4.416-14.436h8.904l4.42 14.44v.004l.048.163 1.52 4.967Z" fill="#FF4669"/><path d="M202.84 71.529a.14.14 0 0 1-.14.139.134.134 0 0 1-.1-.04.142.142 0 0 1-.031-.046.141.141 0 0 1-.009-.053.14.14 0 0 1 .28 0Zm2.428-.14a.14.14 0 0 0-.14.14.14.14 0 0 0 .14.139.137.137 0 0 0 .1-.04.125.125 0 0 0 .03-.046.14.14 0 0 0-.031-.152.137.137 0 0 0-.099-.04Zm2.572 0a.14.14 0 0 0-.14.14.14.14 0 0 0 .28 0 .14.14 0 0 0-.14-.14Zm2.572 0a.14.14 0 0 0-.14.14.141.141 0 0 0 .009.053.142.142 0 0 0 .077.076c.017.007.035.01.054.01a.14.14 0 0 0 .14-.14.137.137 0 0 0-.012-.056.132.132 0 0 0-.033-.046.144.144 0 0 0-.107-.037h.012ZM204 69.6a.14.14 0 0 0-.14.139.14.14 0 0 0 .28 0 .14.14 0 0 0-.14-.14Zm2.572 0a.14.14 0 0 0-.14.139.141.141 0 0 0 .009.053.142.142 0 0 0 .077.076c.017.007.035.01.054.01a.14.14 0 0 0 .128-.197.137.137 0 0 0-.035-.047.133.133 0 0 0-.051-.03.135.135 0 0 0-.058-.005h.016Zm2.568 0a.14.14 0 0 0-.14.139.14.14 0 0 0 .14.139.137.137 0 0 0 .1-.04.125.125 0 0 0 .03-.046.125.125 0 0 0 .01-.053.141.141 0 0 0-.047-.105.133.133 0 0 0-.051-.03.135.135 0 0 0-.058-.005h.016Zm-8.996 5.512a.14.14 0 0 0-.14.139.14.14 0 1 0 .268-.057.137.137 0 0 0-.035-.048.133.133 0 0 0-.051-.029.135.135 0 0 0-.058-.005h.016Zm2.572 0a.133.133 0 0 0-.1.04.126.126 0 0 0-.03.045.14.14 0 1 0 .258-.003.137.137 0 0 0-.035-.048.133.133 0 0 0-.051-.029.135.135 0 0 0-.058-.005h.016Zm2.568 0a.14.14 0 0 0-.14.139.14.14 0 0 0 .28 0 .13.13 0 0 0-.011-.058.124.124 0 0 0-.034-.048.139.139 0 0 0-.111-.033h.016Zm2.572 0a.14.14 0 0 0-.14.139.14.14 0 1 0 .268-.057.137.137 0 0 0-.035-.048.133.133 0 0 0-.051-.029.135.135 0 0 0-.058-.005h.016Zm2.572 0a.133.133 0 0 0-.1.04.143.143 0 0 0-.031.045.142.142 0 0 0-.009.054.14.14 0 1 0 .267-.06.131.131 0 0 0-.037-.05.145.145 0 0 0-.118-.03h.028Zm2.568 0a.14.14 0 0 0-.14.139.14.14 0 0 0 .28 0 .13.13 0 0 0-.011-.058.124.124 0 0 0-.034-.048.139.139 0 0 0-.111-.033h.016Zm-11.568-1.791a.137.137 0 0 0-.129.086.14.14 0 0 0-.011.053.14.14 0 0 0 .041.098.139.139 0 0 0 .099.041.14.14 0 0 0 .14-.14.13.13 0 0 0-.011-.057.124.124 0 0 0-.034-.048.139.139 0 0 0-.111-.033h.016Zm2.572 0a.14.14 0 0 0-.14.139.14.14 0 0 0 .28 0 .14.14 0 0 0-.14-.14Zm2.572 0a.133.133 0 0 0-.1.04.143.143 0 0 0-.031.045.142.142 0 0 0-.009.054.14.14 0 1 0 .268-.057.137.137 0 0 0-.035-.048.133.133 0 0 0-.051-.029.135.135 0 0 0-.058-.005h.016Zm2.568 0a.14.14 0 0 0-.14.139.14.14 0 0 0 .28 0 .13.13 0 0 0-.011-.058.124.124 0 0 0-.034-.048.139.139 0 0 0-.111-.033h.016Zm2.572 0a.14.14 0 0 0-.14.139.14.14 0 1 0 .268-.057.137.137 0 0 0-.035-.048.133.133 0 0 0-.051-.029.135.135 0 0 0-.058-.005h.016Zm-11.568 5.508a.14.14 0 0 0-.14.14.14.14 0 1 0 .124-.14h.016Zm2.572 0a.14.14 0 0 0-.054.269c.017.007.035.01.054.01a.14.14 0 0 0 .128-.197.138.138 0 0 0-.035-.047.132.132 0 0 0-.051-.03.135.135 0 0 0-.058-.005h.016Zm2.568 0a.14.14 0 0 0-.14.14.14.14 0 0 0 .14.138.134.134 0 0 0 .1-.04.124.124 0 0 0 .03-.045.125.125 0 0 0 .01-.054.138.138 0 0 0-.047-.105.132.132 0 0 0-.051-.028.135.135 0 0 0-.058-.006h.016Zm2.572 0a.14.14 0 0 0-.14.14.14.14 0 1 0 .124-.14h.016Zm2.572 0a.14.14 0 0 0-.14.14.141.141 0 0 0 .009.053.14.14 0 0 0 .077.076.144.144 0 0 0 .108-.001.139.139 0 0 0 .086-.129.14.14 0 0 0-.168-.14h.028Zm2.568 0a.139.139 0 0 0-.129.193.137.137 0 0 0 .129.085.137.137 0 0 0 .1-.04.124.124 0 0 0 .03-.045.125.125 0 0 0 .01-.054.138.138 0 0 0-.047-.105.132.132 0 0 0-.051-.028.135.135 0 0 0-.058-.006h.016Zm-11.568-1.791a.14.14 0 0 0-.14.14.14.14 0 0 0 .14.138.134.134 0 0 0 .1-.04.124.124 0 0 0 .03-.045.125.125 0 0 0 .01-.054.138.138 0 0 0-.047-.105.137.137 0 0 0-.109-.035h.016Zm2.572 0a.14.14 0 0 0-.14.14.14.14 0 0 0 .28 0 .14.14 0 0 0-.14-.14Zm2.572 0a.14.14 0 0 0-.14.14.141.141 0 0 0 .009.053.14.14 0 0 0 .077.076.144.144 0 0 0 .108-.001.139.139 0 0 0 .086-.129.138.138 0 0 0-.047-.105.137.137 0 0 0-.109-.035h.016Zm2.568 0a.139.139 0 0 0-.129.193.137.137 0 0 0 .129.085.137.137 0 0 0 .1-.04.124.124 0 0 0 .03-.045.125.125 0 0 0 .01-.054.138.138 0 0 0-.047-.105.137.137 0 0 0-.109-.035h.016Zm2.572 0a.14.14 0 0 0-.14.14.14.14 0 1 0 .124-.14h.016Zm-14 5.592-.052.175a.135.135 0 0 0 .068-.12.106.106 0 0 0-.044-.055h.028Zm2.444-.08a.14.14 0 0 0-.129.086.13.13 0 0 0-.008.08.133.133 0 0 0 .038.072.144.144 0 0 0 .153.03.14.14 0 0 0 .062-.051.14.14 0 0 0-.144-.217h.028Zm2.572 0a.14.14 0 0 0-.14.14.14.14 0 0 0 .28 0 .14.14 0 0 0-.14-.14Zm2.568 0a.14.14 0 0 0-.14.14.14.14 0 0 0 .28 0 .14.14 0 0 0-.14-.14Zm2.572 0a.14.14 0 0 0-.129.086.13.13 0 0 0-.008.08.133.133 0 0 0 .038.072.144.144 0 0 0 .153.03.14.14 0 0 0 .062-.051.14.14 0 0 0-.144-.217h.028Zm2.572 0a.14.14 0 0 0-.14.14.14.14 0 0 0 .28 0 .14.14 0 0 0-.14-.14Zm2.568 0a.14.14 0 0 0-.14.14.14.14 0 0 0 .28 0 .14.14 0 0 0-.14-.14Zm2.444.088a.096.096 0 0 0 0 .047.135.135 0 0 0 .06.116l-.06-.163Zm-16.58-1.879a.133.133 0 0 0-.1.04.124.124 0 0 0-.03.046.14.14 0 1 0 .257-.007.13.13 0 0 0-.037-.05.144.144 0 0 0-.118-.029h.028Zm2.568 0a.14.14 0 0 0-.14.14.14.14 0 0 0 .28 0 .145.145 0 0 0-.011-.062.125.125 0 0 0-.038-.05.138.138 0 0 0-.119-.028h.028Zm2.572 0a.14.14 0 0 0-.14.14.14.14 0 1 0 .235-.103.134.134 0 0 0-.05-.03.138.138 0 0 0-.057-.007h.012Zm2.572 0a.133.133 0 0 0-.1.04.124.124 0 0 0-.03.046.14.14 0 1 0 .257-.007.13.13 0 0 0-.037-.05.144.144 0 0 0-.118-.029h.028Zm2.568 0a.14.14 0 0 0-.14.14.14.14 0 0 0 .28 0 .145.145 0 0 0-.011-.062.125.125 0 0 0-.038-.05.138.138 0 0 0-.119-.028h.028Zm2.572 0a.14.14 0 0 0-.14.14.14.14 0 1 0 .267-.061.13.13 0 0 0-.037-.05.144.144 0 0 0-.118-.029h.028Zm2.572 0a.133.133 0 0 0-.1.04.141.141 0 0 0-.031.046.142.142 0 0 0-.009.053.14.14 0 0 0 .041.099.139.139 0 0 0 .099.04.14.14 0 0 0 .127-.2.13.13 0 0 0-.037-.048.144.144 0 0 0-.118-.03h.028Zm-16.712 5.508a.14.14 0 0 0-.14.14.14.14 0 0 0 .14.14.133.133 0 0 0 .1-.04.124.124 0 0 0 .03-.046.126.126 0 0 0 .01-.054.14.14 0 0 0-.168-.14h.028Zm2.572 0a.14.14 0 0 0-.14.14.14.14 0 0 0 .28 0 .14.14 0 0 0-.168-.14h.028Zm2.572 0a.14.14 0 0 0-.054.27c.017.006.035.01.054.01a.14.14 0 0 0 .127-.2.131.131 0 0 0-.037-.05.144.144 0 0 0-.118-.03h.028Zm2.568 0a.14.14 0 0 0-.14.14.14.14 0 0 0 .14.14.136.136 0 0 0 .14-.14.14.14 0 0 0-.168-.14h.028Zm2.572 0a.14.14 0 0 0-.14.14.14.14 0 0 0 .28 0 .14.14 0 0 0-.168-.14h.028Zm2.572 0a.139.139 0 0 0-.14.14.142.142 0 0 0 .009.054.141.141 0 0 0 .077.076c.017.006.035.01.054.01a.14.14 0 0 0 .14-.14.143.143 0 0 0-.054-.116.14.14 0 0 0-.126-.024h.04Zm2.568 0a.14.14 0 0 0-.14.14.14.14 0 0 0 .14.14.136.136 0 0 0 .14-.14.14.14 0 0 0-.168-.14h.028Zm2.572 0a.14.14 0 0 0-.14.14.14.14 0 0 0 .28 0 .14.14 0 0 0-.168-.14h.028Zm-16.708-1.79a.14.14 0 0 0-.054.269c.017.006.035.01.054.01a.14.14 0 0 0 .127-.2.131.131 0 0 0-.037-.05.144.144 0 0 0-.118-.03h.028Zm2.568 0a.14.14 0 0 0-.14.139.14.14 0 0 0 .14.14.133.133 0 0 0 .1-.04.124.124 0 0 0 .03-.046.126.126 0 0 0 .01-.054.14.14 0 0 0-.168-.14h.028Zm2.572 0a.14.14 0 0 0-.14.139.14.14 0 1 0 .128-.14h.012Zm2.572 0a.139.139 0 0 0-.14.14.126.126 0 0 0 .01.053.136.136 0 0 0 .13.085.14.14 0 0 0 .127-.2.131.131 0 0 0-.037-.049.144.144 0 0 0-.118-.03h.028Zm2.568 0a.14.14 0 0 0-.14.139.14.14 0 0 0 .14.14.136.136 0 0 0 .14-.14.14.14 0 0 0-.168-.14h.028Zm2.572 0a.14.14 0 0 0-.14.139.14.14 0 0 0 .28 0 .14.14 0 0 0-.168-.14h.028Zm2.572 0a.14.14 0 0 0-.14.139.142.142 0 0 0 .009.054.141.141 0 0 0 .077.076c.017.006.035.01.054.01a.14.14 0 0 0 .127-.2.131.131 0 0 0-.037-.05.144.144 0 0 0-.118-.03h.028Z" fill="#fff"/><path d="M161.048 127.36c.09-1.497.302-2.984.636-4.446a9.83 9.83 0 0 1 1.6-3.749 4.793 4.793 0 0 1 3.128-1.938 4.393 4.393 0 0 1 3.292 1.162 15.887 15.887 0 0 1 2.82 3.431 42.003 42.003 0 0 1 2.436 4.247c.024.047-.048.087-.072.039a26.562 26.562 0 0 0-2.18-3.554 22.718 22.718 0 0 0-2.508-3.021c-.844-.796-1.912-1.592-3.128-1.62a3.85 3.85 0 0 0-3.064 1.569 9.318 9.318 0 0 0-1.54 3.602 26.503 26.503 0 0 0-.628 4.23c-.24 2.93-.304 5.875-.372 8.808a346.203 346.203 0 0 0-.076 4.987c0 .84 0 1.683-.02 2.523.03.813-.002 1.628-.096 2.436-.028.163-.3.147-.328 0a14.836 14.836 0 0 1-.112-2.308c0-.796-.02-1.592-.028-2.388 0-1.553-.02-3.105 0-4.653-.008-3.124.028-6.249.24-9.357Z" fill="#263238"/><path d="M165.252 125.155a6.753 6.753 0 0 1 .912-2.547c.852-1.154 1.772-.653.92.625a7.652 7.652 0 0 0-1.2 3.144s1.432 2.038 3.16 3.041a13.442 13.442 0 0 1-.14-3.149c.332-2.515 1.86-2.388 1.48-.374a17.038 17.038 0 0 0-.344 4.036 8.738 8.738 0 0 0 1.844.904 23.701 23.701 0 0 1-.32-1.067c-.612-2.253.9-2.957.948-1.688a17.74 17.74 0 0 0 .584 3.184c.832.279 1.516.466 1.94.613a7.069 7.069 0 0 1 2.832 1.927 8.854 8.854 0 0 0 1.932-2.464 32.256 32.256 0 0 0-2.52-1.938c-2.172-1.529-1.416-3.455.308-2.257 1.244.864 2.204 2.468 2.644 3.288.581-1.436.908-2.96.968-4.506-1.708-1.592-5.924-3.813-4.652-3.813 1.144 0 3.704 1.668 4.644 2.313-.028-.45-.076-.888-.144-1.31-1.6-1.046-6.828-2.678-6-3.144.912-.517 4.556 1.162 5.656 1.692a6.566 6.566 0 0 0-.964-1.99c-2.22-2.958-6.224-3.98-7.972-3.415-1.236.398-.872 3.522-1.14 3.415-4.944-1.986-7.2-.581-5.376 5.48Zm12.172-.342c.352-.422 1.98.824 1.508 1.504-.472.681-1.964-.947-1.508-1.504Zm-8.516-2.659c.428.271-.204 1.847-.864 1.369-.564-.406.432-1.643.864-1.369Z" fill="#FF4669"/><path d="M169.56 122.636c.224-.442.456-.88.712-1.302.235-.423.509-.822.82-1.194-.072-.087-.14-.175-.212-.258-.072-.084.02-.084.052-.048l.244.286c.017.009.03.023.036.04.304.366.592.74.868 1.127.488.106.97.239 1.444.398.488.163.968.33 1.444.529.048.024.024.103-.024.083a23.215 23.215 0 0 0-1.432-.573c-.484-.175-.928-.27-1.392-.398.148.211.3.426.44.645.877.277 1.731.623 2.552 1.035.86.398 1.692.879 2.516 1.357.048.024 0 .096-.044.068a28.136 28.136 0 0 0-2.504-1.286c-.8-.374-1.624-.68-2.428-1.035 2.024 3.149 3.244 6.766 4.868 10.145.024.052-.052.092-.076.04-.496-1.194-1.068-2.328-1.6-3.486-.484-1.043-.956-2.09-1.444-3.133-.14-.302-.288-.608-.436-.911.088 1.68.052 3.391.328 5.055a.04.04 0 0 1-.04.039.04.04 0 0 1-.04-.039c-.12-1.799-.436-3.582-.424-5.373v-.024a29.966 29.966 0 0 0-1.104-2.022c-.672 1.572-1.38 3.184-1.692 4.86 0 .051-.096.027-.08-.024.456-1.696.88-3.391 1.7-4.955a19.202 19.202 0 0 0-1.428-2.05c-.224.398-.516.796-.772 1.194-.256.398-.496.796-.724 1.194-.501.85-.925 1.742-1.268 2.666-.02.052-.104.024-.084-.023.388-.856.78-1.756 1.224-2.627ZM153.576 126.464c1.3-1.301 2.8-3.004 4.824-3 1.94 0 3.368 1.56 4.192 3.184.856 1.675 1.164 3.582 1.408 5.424.285 2.212.456 4.437.512 6.667a67.739 67.739 0 0 1 0 3.717 23.886 23.886 0 0 1-.284 3.749c-.036.199-.36.207-.372 0-.056-1.042 0-2.089 0-3.136 0-1.047 0-2.054-.048-3.08a78.804 78.804 0 0 0-.476-6.217c-.212-1.803-.4-3.658-.928-5.401-.488-1.592-1.404-3.367-3.004-4.06-2.188-.939-4.32.796-5.752 2.233-.048.02-.108-.044-.072-.08Z" fill="#263238"/><path d="M146.94 129.35c0 .267.024.529.044.796a4.703 4.703 0 0 1 2.132-.876c1.844-.199 1.728 1.194.492 1.258a7.02 7.02 0 0 0-2.532.506c.3 2.427.972 4.378 1.072 4.401 1.639-.09 3.27-.295 4.88-.613-.46-.971-1.504-2.264-.972-2.388.532-.123 1.116 1.047 1.412 2.285a23.932 23.932 0 0 0 3.548-.971c-.8-.701-2.068-1.592-1.6-1.942.468-.351 1.476.855 2.072 1.747a7.482 7.482 0 0 0 1.536-.852c-1.096-1.592-3.764-1.926-3.416-3.08.348-1.155 2.844.445 3.964 2.587 1.316-1.358 1.704-3.28 1.564-4.92-1.148-.135-3.352.108-3.2-.712.152-.82 1.752-.665 3.056-.187a4.537 4.537 0 0 0-.764-1.803c-1.2-1.544-4.896.418-4.896.418s.4-3.686-1.012-4.322c-.8-.367-2.24-.363-3.672.477.8.068 1.776.319 2.168.876.5.708-.288 1.094-.8.768-.352-.235-1.012-.963-2.2-1.059-.51.425-.958.918-1.332 1.465-.136.191-.264.398-.4.609a5.083 5.083 0 0 1 4.316.079c1.6.796.704 2.44-.672 1.799-1.376-.64-2.684-1.273-4.14-.907a10.26 10.26 0 0 0-.704 4.111 7.265 7.265 0 0 1 2.368-1.134c1.6-.398 2.072.533.324.708a6.957 6.957 0 0 0-2.636.876Zm1.932-2.539c-.108-.514 1.016-.661 1.2-.243.16.37-1.092.792-1.2.259v-.016Zm9.64 2.837c.108-.282.86.036.8.398-.112.47-.912-.103-.8-.382v-.016Zm-5.312 1.811c.552-.219 1.408 1.143.8 1.453-.608.311-1.26-1.274-.8-1.453Z" fill="#FF4669"/><path d="M148.364 135.161c.828-1.377 1.648-2.762 2.516-4.116.403-.628.825-1.245 1.268-1.85l-.196-.048-.328-.064a20.36 20.36 0 0 0-.768-.107 8.877 8.877 0 0 0-.728-.04 3.6 3.6 0 0 0-.776.04c-.032 0-.036-.04 0-.04.26 0 .524-.024.8-.028s.504 0 .752.02c.237.012.473.036.708.072l.4.067c.076 0 .156.028.232.048.448-.613.916-1.214 1.396-1.803a16.697 16.697 0 0 0-4.532-1.441c-.028 0 0-.043 0-.039 1.597.22 3.149.689 4.6 1.389l.8-.967c.3-.359.62-.709.888-1.087 0-.028.056 0 .036.024-.372.408-.723.834-1.052 1.277.591.411 1.154.86 1.684 1.346.552.485 1.085.987 1.6 1.504a.021.021 0 0 1 .007.015.017.017 0 0 1-.005.015.021.021 0 0 1-.015.007.017.017 0 0 1-.015-.005 26.76 26.76 0 0 0-1.6-1.461c-.56-.465-1.148-.887-1.712-1.345l-.4.502c-.068.083-.132.171-.196.254-.212.283-.428.561-.64.84.249.363.463.748.64 1.15.184.398.344.796.496 1.194a17.5 17.5 0 0 1 .688 2.583c0 .024-.036.036-.04 0a15.08 15.08 0 0 0-.752-2.531 20.028 20.028 0 0 0-.536-1.242c-.192-.41-.38-.732-.54-1.106-.184.243-.372.489-.552.74l-.156.219v.036a55.715 55.715 0 0 0-1.636 2.42.634.634 0 0 1 .072.179 5.398 5.398 0 0 1 .24.911c.036.195.064.398.084.589.002.223.018.445.048.665 0 .032-.044.036-.04 0a2.162 2.162 0 0 0-.048-.621 6.773 6.773 0 0 0-.116-.633 8.83 8.83 0 0 0-.152-.565c-.032-.092-.06-.187-.092-.279-.032-.091-.04-.099-.056-.151-.248.388-.492.774-.732 1.158l-1.424 2.317c-.084.059-.144.028-.12-.012ZM161.136 145.74c.02-.796.144-1.568.228-2.345.084-.776.176-1.56.26-2.34a34.99 34.99 0 0 1 .604-4.513 6.56 6.56 0 0 1 1.848-3.375 2.99 2.99 0 0 1 1.808-.86 3.124 3.124 0 0 1 1.924.589 6.722 6.722 0 0 1 1.6 1.696c.469.648.89 1.329 1.26 2.037 0 .024-.028.04-.044 0a10.459 10.459 0 0 0-2.728-3.04 3.212 3.212 0 0 0-1.716-.713 2.329 2.329 0 0 0-.9.165 2.322 2.322 0 0 0-.768.496 6.226 6.226 0 0 0-1.76 3.1 31.145 31.145 0 0 0-.68 4.171c-.112.824-.216 1.652-.328 2.48-.112.828-.176 1.664-.352 2.472a.13.13 0 0 1-.055.061.138.138 0 0 1-.157-.012.137.137 0 0 1-.044-.069Z" fill="#263238"/><path d="M164.992 139.698c.243.327.532.619.856.868-.128-.765-.284-2.118.1-2.838.6-1.118 1.312-.561.952.398a7.961 7.961 0 0 0-.576 2.762c.817.51 1.693.92 2.608 1.222a4.267 4.267 0 0 1-.088-1.333c.12-1.194 1.04-1.175.8.067a7.827 7.827 0 0 0-.124 1.465c1.335.404 2.699.706 4.08.903a11.778 11.778 0 0 0 1.684-2.981c-.98-.242-2.96-.298-2.92-.995.056-.935 1.976-.215 3.1.466a7.493 7.493 0 0 0 .34-2.519 12.597 12.597 0 0 0-2.7-.446c-2-.175-1.916-1.31-.456-1.286 1.076.02 2.44.677 3.088 1.019-.424-2.726-2.512-4.477-4.192-4.541-2.8-.115-1.804 3.375-1.804 3.375s-1.908-1.337-3.712-1.301c-1.804.035-2.96 3.005-1.036 5.695Zm7.532-5.047c-.064-.398 1.2-.485 1.26 0 .076.562-1.196.378-1.26-.02v.02Zm2.024 4.096c-.028-.259.516-.303.64.02.08.191-.62.211-.64-.04v.02Zm-6.768.239c.424.059.664 1.572-.068 1.54-.556-.032-.292-1.624.068-1.56v.02Z" fill="#FF4669"/><path d="M168.368 140.645c.067-.191.131-.382.192-.573a6.859 6.859 0 0 0-.14.585c-.02.04-.068.024-.052-.012ZM168.56 140.072c0-.044.024-.091.04-.135-.016.044-.028.091-.04.135Z" fill="#263238"/><path d="m156.42 144.223.2 4.175.508 10.758h11.16l.512-10.758.196-4.175H156.42Z" fill="#37474F"/><path d="m156.42 144.223.2 4.175h12.18l.196-4.175H156.42Z" fill="#263238"/><path d="M155.628 145.911h14.16v-3.375h-14.16v3.375ZM167.384 159.156h-1.96v1.767h1.96v-1.767Z" fill="#37474F"/><path d="M167.384 159.156h-1.96v.884h1.96v-.884Z" fill="#263238"/><path d="M159.988 159.156h-1.956v1.767h1.956v-1.767Z" fill="#37474F"/><path d="M159.988 159.156h-1.956v.884h1.956v-.884ZM241.792 86.64c-3.128 5.08-.176 10.07-1.036 13.568-.524 2.142-3.512 5.174-3.56 7.467-.076 3.753 3.2 4.044 3.148 6.085-.068 2.894-3.632 3.817-2.884 8.275.748 4.457 6.928 7.47 18.492 5.106s16.4-8.402 15.6-12.139c-.8-3.737-4.876-3.745-6-6.368-.72-1.668 1.2-3.606.268-6.814-.932-3.207-4.352-3.24-5.672-5.79-1.32-2.552-2-9.553-7.068-11.614-5.068-2.062-9.748-.279-11.288 2.225Z" fill="#263238"/><path d="M242.324 86.577a9.57 9.57 0 0 0-1.8 4.219 20.753 20.753 0 0 0-.18 4.88c.105.961.099 1.932-.02 2.893a6.986 6.986 0 0 1-.9 2.324c-.856 1.477-2.028 2.766-2.716 4.334-.652 1.489-.948 3.292-.028 4.736.5.796 1.296 1.306 1.912 1.99.616.685 1.02 1.553.572 2.388-.4.717-1.116 1.222-1.6 1.867a7.266 7.266 0 0 0-1.12 2.098 5.676 5.676 0 0 0 .36 4.604c1.776 3.244 5.676 4.163 9.084 4.434.476.036.952.072 1.428.1.076 0 .1-.104.024-.112-3.456-.374-7.472-.828-9.724-3.813a5.335 5.335 0 0 1-.928-4.628 6.767 6.767 0 0 1 1.052-2.185c.464-.641 1.076-1.139 1.556-1.76a2.14 2.14 0 0 0 .469-1.018c.062-.375.023-.76-.113-1.115a5.223 5.223 0 0 0-1.548-1.942 4.315 4.315 0 0 1-1.468-2.098 4.75 4.75 0 0 1 .164-2.507c.512-1.628 1.6-2.945 2.544-4.346.944-1.401 1.552-2.902 1.504-4.613-.028-.868-.148-1.731-.208-2.595a22.056 22.056 0 0 1-.048-2.412 10.98 10.98 0 0 1 1.104-4.629c.192-.37.42-.723.68-1.05.024-.032-.024-.08-.052-.044ZM271.2 112.192a4.412 4.412 0 0 0-1.296-1.369c-.548-.362-1.152-.625-1.728-.939a3.3 3.3 0 0 1-1.4-1.194c-.376-.665-.296-1.441-.16-2.161.178-.743.302-1.497.372-2.257a7.35 7.35 0 0 0-.248-2.209 7.467 7.467 0 0 0-2.464-3.769c-.584-.501-1.2-.951-1.788-1.445a9.397 9.397 0 0 1-1.692-1.842c-1.044-1.509-1.728-3.24-2.688-4.804a27.608 27.608 0 0 0-3.452-4.454c-.032-.036-.076.02-.044.052a24.51 24.51 0 0 1 3.064 4.043c.836 1.374 1.464 2.846 2.216 4.263a10.206 10.206 0 0 0 2.84 3.53c1.152.98 2.324 1.939 3.004 3.324a7.133 7.133 0 0 1 .632 4.378c-.228 1.293-.656 2.786.276 3.904.8.955 2.052 1.274 3.044 1.958a4.621 4.621 0 0 1 1.896 3.268c.4 3.303-2.224 5.854-5.108 6.953a.077.077 0 0 0-.033.04.081.081 0 0 0 .001.051.076.076 0 0 0 .084.048c2.54-.848 4.952-2.857 5.376-5.616a5.64 5.64 0 0 0-.704-3.753Z" fill="#263238"/><path d="M263.336 182.622c-.356-1.166-19.668-28.087-21.056-28.656-.524-.219-1.548-1.031-6.42 2.213l-10.26-8.959-5.832 18.965 25.432 10.778s12.024 7.016 13.6 7.474c1.576.458 4.896-.649 4.536-1.815Z" fill="#AD6359"/><path d="M263.336 182.622c-.356-1.166-19.668-28.087-21.056-28.656-.524-.219-1.548-1.031-6.42 2.213l-10.26-8.959-5.832 18.965 25.432 10.778s12.024 7.016 13.6 7.474c1.576.458 4.896-.649 4.536-1.815Z" fill="#AD6359"/><path d="m234.824 172.573 10.352 4.378s12.028 7.013 13.6 7.47c1.572.458 4.904-.648 4.544-1.811-.36-1.162-19.668-28.086-21.052-28.656-.528-.219-1.548-1.03-6.42 2.213l-1.048-.947.024 17.353Z" fill="#C7C7C7"/><path d="M237.096 172.644a6.224 6.224 0 0 0-.916-1.03 5.909 5.909 0 0 0-1.104-.828c.269.376.579.722.924 1.031.333.316.701.593 1.096.827ZM237.12 170.845a6.449 6.449 0 0 0-.916-1.03 6.243 6.243 0 0 0-1.104-.828c.263.378.571.724.916 1.031.336.316.706.594 1.104.827ZM237.14 169.051a6.87 6.87 0 0 0-2.02-1.859c.268.375.575.721.916 1.031.336.315.707.593 1.104.828ZM237.164 167.252a6.863 6.863 0 0 0-2-1.859c.264.378.572.724.916 1.031.329.315.693.593 1.084.828ZM237.2 165.457a5.796 5.796 0 0 0-.916-1.031 6.007 6.007 0 0 0-1.104-.832c.265.377.573.722.916 1.031.336.317.706.595 1.104.832ZM237.2 163.658a6.323 6.323 0 0 0-.916-1.031 6.147 6.147 0 0 0-1.104-.828c.264.378.571.724.916 1.031.335.316.706.594 1.104.828ZM237.228 161.859a6.874 6.874 0 0 0-2.028-1.863 6.884 6.884 0 0 0 2.02 1.859l.008.004ZM237.252 160.064a6.231 6.231 0 0 0-.916-1.031 5.909 5.909 0 0 0-1.104-.828c.264.378.572.724.916 1.031.336.316.706.594 1.104.828ZM237.272 158.265a5.947 5.947 0 0 0-.916-1.031 6.147 6.147 0 0 0-1.104-.828 6.89 6.89 0 0 0 2 1.859h.02Z" fill="#263238"/><path d="M185.844 145.513c3.12 8.529 46.424 28.206 46.424 28.206l7.332-22.658-19.88-8.434 42.124-6.145-21.496-7.984s-4.08 1.72-7.088.852c-1.336-.398-29.716-4.294-35.232-2.925-12.188 3.017-15.048 11.259-12.184 19.088Z" fill="#455A64"/><path d="M209.808 137.457c.841.345 1.659.744 2.448 1.194.844.422 1.696.832 2.54 1.258h.028l-.568-.458c-.652-.513-1.252-1.078-1.952-1.532a.043.043 0 0 1-.01-.024.037.037 0 0 1 .007-.025.036.036 0 0 1 .021-.015.039.039 0 0 1 .026 0c.708.442 1.46.824 2.128 1.33.316.238.62.485.92.74.164.139.332.278.488.426.078.066.152.138.22.215.4.199.768.398 1.144.613.84.469 1.64 1.007 2.484 1.468.044.028 0 .092-.044.068-.828-.418-1.696-.756-2.528-1.166-.832-.41-1.676-.86-2.504-1.314-.828-.453-1.6-.899-2.4-1.345a22.021 22.021 0 0 1-2.46-1.389c-.036-.012-.02-.056.012-.044ZM229.884 168.282c.184-.644.376-1.289.568-1.93.4-1.282.772-2.567 1.164-3.849.8-2.547 1.572-5.094 2.4-7.625.476-1.429.952-2.87 1.488-4.279a.064.064 0 0 1 .034-.04.068.068 0 0 1 .052-.006.073.073 0 0 1 .041.034c.009.016.01.035.005.052-.656 2.599-1.468 5.174-2.276 7.717a702.59 702.59 0 0 1-2.468 7.606c-.236.712-.468 1.421-.712 2.125-.244.705-.532 1.433-.776 2.154 0 .035-.068.019-.056 0 .2-.661.352-1.314.536-1.959Z" fill="#263238"/><path d="M252.88 108.471c-4 7.793-10.484 16.716-12.58 17.91-2.652 1.5-17.716 1.68-18.44 1.592-1.788-.263-2.108-13.632-.184-13.433 2.932.307 13.348 2.337 14.124 1.863.776-.474 6.528-4.848 12.552-9.878 4.16-3.503 7.016-2.886 4.528 1.946Z" fill="#AD6359"/><path d="M223.432 127.627c-.236.051-3.56.796-5.52.851-1.46.052-5.668.084-5.884-1.512-.148-1.087 2.324-1.397 4.068-1.652.92-.135 2.164-.744 2.052-1.337-.192-1.039-2.568-.641-4.18-.183-3.12.887-7.464 2.786-8.776 1.015-.496-.677.476-1.437 1.776-2.098-2 .645-4.076 1.067-4.656.339-.336-.418-.244-.852.108-1.286a1.259 1.259 0 0 1-1.284-.541c-.4-.729.08-1.525.924-2.257a.701.701 0 0 1-.428-.462c-.732-2.109 6.552-5.798 8.74-5.767 6.432.092 12.76 1.971 12.76 1.971 1.904 2.495.304 12.915.3 12.919Z" fill="#AD6359"/><path d="M215.92 119.822a10.675 10.675 0 0 0-4.444.529c-1.796.625-3.116 1.548-4.712 2.416a.048.048 0 0 0-.012.022.042.042 0 0 0 .004.025.041.041 0 0 0 .019.018.037.037 0 0 0 .025.003c.76-.398 3.848-1.899 4.632-2.217a10.128 10.128 0 0 1 4.484-.772c.02 0 .02-.024.004-.024ZM215.44 116.972a25.376 25.376 0 0 0-5.124.438c-1.828.398-3.436 1.437-5.012 2.412a75.579 75.579 0 0 0-2.8 1.819c-.04.024 0 .091.036.063a95.294 95.294 0 0 1 4.9-2.893 13.449 13.449 0 0 1 4.98-1.592c1-.115 2-.155 3.012-.195.024-.012.028-.052.008-.052ZM214.304 114.306c-1.628-.076-3.052-.144-4.632.338-2.096.637-4.32 2.038-5.1 2.535a57.758 57.758 0 0 0-2.54 1.723c-.036.024 0 .084.04.06a52.73 52.73 0 0 1 5.928-3.47 10.686 10.686 0 0 1 3.08-1.047 19.595 19.595 0 0 1 3.24-.131s-.008-.008-.016-.008Z" fill="#263238"/><path d="m247.096 119.878-4.732-9.994a70.952 70.952 0 0 1 6.956-4.919c4.092-2.552 6.092-1.159 3.652 4.847a41.146 41.146 0 0 1-5.876 10.066Z" fill="#FF4669"/><path d="M243.832 109.195c.436.701.768 1.473 1.14 2.205.372.733.716 1.401 1.052 2.114a124.739 124.739 0 0 1 2 4.469c0 .028-.032.048-.044.024-.74-1.437-1.46-2.878-2.16-4.334-.348-.721-.676-1.457-1.004-2.185-.328-.729-.736-1.493-1.016-2.269l.002-.011c.002-.004.004-.007.008-.009.003-.003.007-.004.01-.005l.012.001Z" fill="#263238"/><path d="M270.508 140.538c-1.012.398-30.716-6.575-30.716-6.575l2.944-10.288s-1.872-3.165-1.236-6.333c.844-4.234 8.272-11.494 8.86-11.94 2.372-1.739 4.528-2.077 6.612-1.106 8.692 4.06 13.536 36.242 13.536 36.242Z" fill="#FF4669"/><path d="M246.528 109.255c-.708.911-1.476 1.783-2.212 2.675.332-.653.66-1.314 1.016-1.955 0 0 0-.027-.02 0a14.507 14.507 0 0 0-1.364 2.428 19.72 19.72 0 0 0-1.512 2.133 9.144 9.144 0 0 0-1.2 2.886 7.683 7.683 0 0 0 .068 3.124 20.107 20.107 0 0 0 1.164 3.435c.064.147.272.044.224-.104-.652-1.946-1.38-3.98-1.044-6.081.336-2.101 1.528-3.849 2.692-5.532a28.658 28.658 0 0 1 2.236-2.945c.052-.056-.016-.104-.048-.064Z" fill="#263238"/><path d="M230.992 127.042h-32.488v1.448h32.488v-1.448Z" fill="#C7C7C7"/><path d="M198.504 127.042v1.448h22.084l-1.112-1.448h-20.972Z" fill="#A6A6A6"/><path d="M218.072 128.49h-31.664l-2.636-21.396h31.668l2.632 21.396Z" fill="#C7C7C7"/><path d="M202.852 117.808a1.875 1.875 0 0 1-1.162 1.774 1.883 1.883 0 0 1-.734.144 1.969 1.969 0 0 1-1.372-.562 1.948 1.948 0 0 1-.588-1.356c-.005-.25.04-.499.132-.732a1.89 1.89 0 0 1 1.76-1.186 1.975 1.975 0 0 1 1.374.562c.367.358.579.845.59 1.356Z" fill="#fff"/><path d="M260.8 108.348c3.472 5.751 10.492 25.284 6.4 28.023-4.092 2.738-22.68-5.095-27.68-8.613-1.488-1.047 6.42-10.042 8.368-9.95 1.6.076 8.74 4.963 9.056 4.537.316-.426-.456-4.465-1.2-11.812-.836-8.47 3.056-5.493 5.056-2.185ZM240.4 113.179c-3.844-1.226-5.02-.951-7.712-3.697-1.768-1.803-3.684-1.457-2.932 1.055 1.228 4.107 5.852 6.722 7.72 7.164l2.924-4.522Z" fill="#AD6359"/><path d="M250.204 118.751s-4-3.208-7.968-4.915c-2.744-1.194-9-3.085-16.212 2.141-1.712 1.242-3.264 4.215.268 3.184 2.512-.724 3.884-1.934 5.42-2.089 0 0-1.524 4.016-.212 5.671a39.193 39.193 0 0 0 3.748 4.088 8.52 8.52 0 0 0 .832-.633s1.376 1.433 4.4 1.663l9.724-9.11Z" fill="#AD6359"/><path d="M239.436 113.128c-1.492.473-4.636 1.532-6.908 3.287-2.52 1.954-6.852 6.388-5.384 8.227 1.076 1.349 2.88-.203 2.88-.203s-1.404 2.209-.164 3.216c1.128.915 2.452-.367 2.452-.367s-.62 1.485.64 2.162c1.516.796 2.56-2.436 4.8-2.934.512-.111 1.684-13.388 1.684-13.388Z" fill="#AD6359"/><path d="M235.044 118.723c-1.328.677-3.952 2.981-5.032 5.652-.024.06 0 .111.044.06a31.13 31.13 0 0 1 5.008-5.688s-.004-.032-.02-.024ZM236.952 121.314c-1.088.701-3.688 3.184-4.688 5.939 0 .063 0 .111.048.059a33.379 33.379 0 0 1 4.66-5.97s-.008-.036-.02-.028ZM231.716 117.06c-1.352.155-2.296.641-3.508 1.194-.597.287-1.21.54-1.836.756-.572.195-1.416.486-1.896-.052a1.061 1.061 0 0 1-.056-1.082c.248-.492.572-.942.96-1.334 0 0 0-.039-.028-.024a7.59 7.59 0 0 0-.996 1.159c-.193.29-.293.631-.288.979.064.736.884.971 1.508.879a5.78 5.78 0 0 0 1.096-.31c.344-.127.68-.267 1.012-.398.68-.307 1.344-.649 2-.963a17.471 17.471 0 0 1 2.024-.749c.044-.015.032-.055.008-.055Z" fill="#263238"/><path d="M228.244 121.092a40.99 40.99 0 0 1 3.492-3.98s0-.044-.024-.028c-1.164.772-3.2 3.001-3.72 3.741-.52.74-1.112 1.671-1.264 2.555-.232 1.333.612 1.739.928 1.863.381.133.795.133 1.176 0 .45-.182.858-.453 1.2-.796 0 0 0-.044-.024-.028-.556.446-1.42.832-2.132.609a1.25 1.25 0 0 1-.752-.589 1.608 1.608 0 0 1-.028-1.111 7.55 7.55 0 0 1 1.148-2.236Z" fill="#263238"/><path d="m266.548 118.787-11.004-1.445a70.52 70.52 0 0 1-.4-8.485c.056-4.804 2.32-5.723 6.072-.434a40.969 40.969 0 0 1 5.332 10.364Z" fill="#FF4669"/><path d="M255.756 115.742c.828 0 1.656.152 2.48.235.824.084 1.572.159 2.352.263 1.628.219 3.24.47 4.856.756.028 0 .024.052 0 .052-1.616-.159-3.227-.34-4.832-.541-.8-.1-1.6-.219-2.4-.339-.8-.119-1.66-.191-2.468-.378a.02.02 0 0 1-.015-.011.021.021 0 0 1-.003-.019.033.033 0 0 1 .011-.015.032.032 0 0 1 .019-.003Z" fill="#263238"/><path d="M255.288 116.216a24.015 24.015 0 0 1-.1-1.194v-.247a15.424 15.424 0 0 1-.348-1.472s.024-.024.028 0c.12.368.22.743.3 1.122a18.985 18.985 0 0 1-.024-1.847h.032c.1.796.148 1.592.224 2.412.036.398.168 2.309.188 2.313.02.004.916.147.972.179.056.031.028.075 0 .075l-1.14-.147s-.096-.84-.132-1.194Z" fill="#263238"/><path d="M147.368 169.946c1.044.633 33.452 7.988 34.868 7.49.536-.187 1.844-.25 3.32-5.898.316-1.218 20.996-11.056 20.996-11.056L185.1 150.93l-20.4 11.247s-13.672 2.706-15.164 3.419c-1.492.712-3.212 3.713-2.168 4.35Z" fill="#AD6359"/><path d="M147.368 169.946c1.048.637 33.452 7.992 34.868 7.494.536-.183 1.848-.25 3.316-5.898.092-.334 1.848-1.274 4.356-2.46l-21.264-9.086-3.928 2.169s-13.672 2.71-15.164 3.415c-1.492.704-3.228 3.729-2.184 4.366Z" fill="#C7C7C7"/><path d="M188.36 169.086a6.36 6.36 0 0 0-1.296.478 6.158 6.158 0 0 0-1.176.72 6.83 6.83 0 0 0 2.472-1.194v-.004ZM186.684 168.414a6.298 6.298 0 0 0-1.296.477 6.022 6.022 0 0 0-1.176.725 6.223 6.223 0 0 0 1.296-.478 6.017 6.017 0 0 0 1.176-.724ZM185.012 167.745a6.815 6.815 0 0 0-2.476 1.194 5.985 5.985 0 0 0 1.296-.478 6.338 6.338 0 0 0 1.18-.716ZM183.336 167.072a6.83 6.83 0 0 0-2.476 1.194c.45-.109.886-.269 1.3-.477a6.279 6.279 0 0 0 1.176-.717ZM181.66 166.4a6.815 6.815 0 0 0-2.476 1.194c.45-.108.886-.267 1.3-.474a6.293 6.293 0 0 0 1.176-.72ZM180 165.727a5.985 5.985 0 0 0-1.296.478 6.11 6.11 0 0 0-1.2.72 6.815 6.815 0 0 0 2.476-1.194l.02-.004ZM178.308 165.055a7.02 7.02 0 0 0-2.472 1.194 6.134 6.134 0 0 0 1.296-.474 6 6 0 0 0 1.176-.72ZM176.632 164.374a6.223 6.223 0 0 0-1.296.478 6.01 6.01 0 0 0-1.176.716 6.223 6.223 0 0 0 1.296-.478 6.01 6.01 0 0 0 1.176-.716ZM174.956 163.713a6.862 6.862 0 0 0-2.472 1.194 6.035 6.035 0 0 0 1.296-.477 6.195 6.195 0 0 0 1.176-.717ZM173.28 163.041c-.448.11-.883.269-1.296.473a6.022 6.022 0 0 0-1.176.725c.449-.109.884-.27 1.296-.478a6.158 6.158 0 0 0 1.176-.72ZM171.6 162.384c-.448.11-.883.269-1.296.474-.418.197-.812.44-1.176.724a5.973 5.973 0 0 0 1.296-.474c.418-.197.813-.44 1.176-.724ZM169.932 161.695c-.45.11-.886.27-1.3.478a6.346 6.346 0 0 0-1.176.72 5.97 5.97 0 0 0 1.296-.473c.42-.196.816-.439 1.18-.725ZM168.256 161.023c-.45.111-.886.271-1.3.477a6.15 6.15 0 0 0-1.176.725c.45-.112.886-.272 1.3-.478a6.096 6.096 0 0 0 1.176-.724Z" fill="#263238"/><path d="m170.124 158.404 21.852 10.448 35.916-17.656s8.232 6.344 17.072 7.996c6 1.122 18.604 1.075 23.48-5.878 4.108-5.851 1.68-12.736 1.68-12.736l-6.884-3.113s-16.208-11.542-26.352-12.585c-15.476-1.627-66.764 33.524-66.764 33.524Z" fill="#455A64"/><path d="M257.2 133.449c.984.585 1.94 1.214 2.908 1.819s1.936 1.143 2.852 1.799c.916.657 1.816 1.389 2.7 2.118.424.35.848.704 1.26 1.066.429.351.831.734 1.2 1.146.032.04-.024.092-.064.072a12.738 12.738 0 0 1-1.324-.935c-.468-.338-.924-.681-1.388-1.023-.892-.657-1.8-1.294-2.688-1.95-.888-.657-1.712-1.381-2.592-2.046-.88-.665-1.92-1.365-2.892-2.034-.016-.012-.004-.044.028-.032ZM227.92 151.2a50.89 50.89 0 0 0 5.78 3.686l9.1-11.351-14.88 7.665ZM175.368 156.438c.716.278 1.42.613 2.124.927.704.315 1.388.621 2.08.94 1.412.648 2.8 1.321 4.22 1.99 2.8 1.345 9.112 4.863 10.676 5.647.028 0 0 .064-.024.052-2.824-1.25-11.668-5.66-14.464-7.057a617.36 617.36 0 0 1-2.316-1.194c-.768-.398-1.572-.796-2.328-1.249-.032-.012-.008-.08.032-.056ZM186.944 147.475c.596-.49 13.296-8.087 16.028-9.632a209.736 209.736 0 0 1 8.276-4.445c2.792-1.417 5.6-2.766 8.488-3.98s5.728-2.36 8.68-3.292c.376-.119.752-.239 1.128-.366.036 0 .048.044 0 .056-1.496.509-2.952 1.126-4.4 1.719a164.161 164.161 0 0 0-4.288 1.823 166.813 166.813 0 0 0-8.4 4.028 213.812 213.812 0 0 0-8.188 4.429 430.05 430.05 0 0 0-8.088 4.717c-1.34.796-8.8 4.915-9.148 5.07-.072.012-.152-.071-.088-.127Z" fill="#263238"/><path d="M206.876 161.389c1.34-.732 2.704-1.417 4.06-2.117a229.618 229.618 0 0 1 4.092-2.05 856.449 856.449 0 0 1 8.172-3.944c1.544-.737 3.096-1.481 4.684-2.118.032 0 .06.032.028.048-1.316.768-2.684 1.457-4.044 2.141-1.36.685-2.732 1.362-4.1 2.038-2.712 1.341-5.42 2.691-8.164 3.956-1.556.721-3.104 1.457-4.676 2.138-.06.027-.128-.06-.052-.092Z" fill="#263238"/><path d="M255.728 104.841c0 .541-1.716 4.438-4.104 4.856-.776.139-1.712-4.056-1.712-4.056l-.14-.29-1.956-4.116 5.012-5.014s2.896 8.393 2.9 8.62Z" fill="#AD6359"/><path d="m247.816 101.235 1.956 4.112a9.19 9.19 0 0 0 2.685-2.697 9.127 9.127 0 0 0 1.355-3.548c-.496-1.457-.912-2.667-.972-2.846l-.644.597-4.38 4.382Z" fill="#263238"/><path d="M239.768 96.618c1.124 7.909 6 8.132 7.724 7.889 1.556-.223 6.824-1.17 6.528-9.154-.296-7.984-4.344-9.95-7.928-9.644-3.584.307-7.448 2.997-6.324 10.91Z" fill="#AD6359"/><path d="M240.74 95.763c.18-.064.336-.148.508-.227a.878.878 0 0 0 .472-.326.283.283 0 0 0-.072-.339.715.715 0 0 0-.72 0 1.03 1.03 0 0 0-.56.494.302.302 0 0 0 .204.4.308.308 0 0 0 .168-.002ZM246.088 94.7c-.184.01-.368.01-.552 0a.928.928 0 0 1-.568-.107.289.289 0 0 1-.072-.339.708.708 0 0 1 .648-.306c.258-.017.513.063.716.223a.302.302 0 0 1-.172.53ZM245.048 96.09c0-.025.044 0 .048.039.084.537.272 1.138.8 1.222v.032c-.616.028-.856-.772-.848-1.294Z" fill="#263238"/><path d="M245.42 95.44c.852-.226 1.248 1.481.46 1.692-.788.21-1.172-1.5-.46-1.692Z" fill="#263238"/><path d="M245.78 95.452c.172.064.36.2.544.175.184-.023.332-.242.428-.445 0-.02.028 0 .032 0a.641.641 0 0 1-.308.824c-.312.119-.612-.12-.768-.43-.032-.056 0-.147.072-.124ZM242.092 96.63s-.036.032-.028.056c.144.525.22 1.15-.22 1.44v.029c.576-.223.468-1.043.248-1.525Z" fill="#263238"/><path d="M241.484 96.189c-.868.139-.528 1.858.28 1.73.808-.126.452-1.846-.28-1.73Z" fill="#263238"/><path d="M241.148 96.372c-.12.12-.22.31-.4.354-.18.044-.364-.108-.52-.263 0 0-.028 0-.024.024.056.33.236.653.564.653.328 0 .46-.323.472-.669.02-.063-.04-.155-.092-.1ZM243.508 99.237s.064.82.148 1.194c0 .036.1.032.232 0a1.822 1.822 0 0 0 1.6-1.038c0-.044-.036-.072-.068-.04a2.782 2.782 0 0 1-1.528.82c-.052-.1-.064-1.405-.124-1.397a3.423 3.423 0 0 0-.8.398c-.18-1.7-.088-3.415-.296-5.103 0-.06-.096-.06-.1 0-.228 1.791-.06 3.75.08 5.509.008.203.72-.243.856-.343Z" fill="#263238"/><path d="M244.072 100.264c.265.233.586.394.932.466a.906.906 0 0 0 .564-.072c.4-.183.316-.549.184-.848a2.244 2.244 0 0 0-.276-.445 2.649 2.649 0 0 1-1.404.899Z" fill="#263238"/><path d="M245.004 100.73a.906.906 0 0 0 .564-.072c.4-.183.316-.549.184-.847a.962.962 0 0 0-.748.919Z" fill="#FF98B9"/><path d="M254 95.365c-1.264.454-2.308-2.157-2.308-2.157s-2.624.728-4.532-2.786a6.011 6.011 0 0 0 2.024 2.786s-4.764.796-7.78-2.532c0 0 1.32 1.748 2.244 2.245 0 0-2.092 0-3.472-1.313 0 0-.192 2.447-.644 3.231 0 0-2.048-8.107 5.692-9.313 0 0 4.8-.979 7.496 2.257 2.696 3.236 1.28 7.582 1.28 7.582Z" fill="#263238"/><path d="M254.324 94.804c.036 1.126 1.036-4.442.8-5.174-.236-.733-2.724-4.06-6.324-4.764-3.028-.582-6.052 1.241-6.576 1.568a4.85 4.85 0 0 0-1.476 1.409s3.952-2.388 7.892-2.34c1.888.031 5.548 5.086 5.684 9.3Z" fill="#FF4669"/><path d="M250.056 84.153s-1.46-2.014-3.624-2.101c0 0 .236 2.113 1.044 2.758.4.322 2.096.346 2.272.052.128-.225.231-.462.308-.709Z" fill="#FF4669"/><path opacity=".1" d="M250.056 84.153c-.08.245-.183.483-.308.709a.067.067 0 0 1-.028.031.149.149 0 0 1-.048.036l-.04.02a2.431 2.431 0 0 1-.928.116c.025-.317.079-.63.164-.936.127-.268.337-.489.6-.629.214.201.411.42.588.653Z" fill="#050400"/><path d="M250.604 84.404s2.96-.677 4.448-.135c0 0-.672 1.611-2.144 2.101-.66.223-2.712-.848-2.632-1.194.072-.271.183-.531.328-.772Z" fill="#FF4669"/><path opacity=".1" d="M251.28 84.272c.095.324.095.668 0 .991a1.51 1.51 0 0 1-.356.518c-.4-.239-.692-.482-.664-.62.074-.267.185-.521.328-.757 0 0 .28-.064.692-.132Z" fill="#050400"/><path d="M250.964 85.057a.985.985 0 0 1-.921.595.993.993 0 0 1-.905-.619.98.98 0 0 1 .74-1.33.99.99 0 0 1 1.167.979.968.968 0 0 1-.081.375Z" fill="#FF4669"/><path d="M252.844 96.14s1.144-2.82 2.4-2.467c1.256.355.8 4.167-.4 4.947a1.36 1.36 0 0 1-1.936-.302l-.064-2.177Z" fill="#AD6359"/><path d="M255.076 94.764s.032.02 0 .032c-.828.577-1.112 1.528-1.248 2.48a.751.751 0 0 1 1.048-.45c.028 0 0 .051 0 .051a.841.841 0 0 0-.828.49 4.135 4.135 0 0 0-.26.82c-.024.091-.184.08-.172 0v-.024c-.292-1.17.236-2.997 1.46-3.4Z" fill="#263238"/><path d="M115.288 162.651c0 .449 1.808 1.898 3.98 2.069 2.172.171 5.696-.68 6.448-.597.752.084.66 2.13 1.408 2.563.748.434 2.456-.772 2.8-1.361.344-.589-.34-2.754-.932-3.033-.592-.278-4.456-1.95-5-3.725-.544-1.775-8.7 3.379-8.704 4.084Z" fill="#FF4669"/><path opacity=".1" d="M115.288 162.651c0 .449 1.808 1.898 3.98 2.069 2.172.171 5.696-.68 6.448-.597.752.084.66 2.13 1.408 2.563.748.434 2.456-.772 2.8-1.361.344-.589-.34-2.754-.932-3.033-.592-.278-4.456-1.95-5-3.725-.544-1.775-8.7 3.379-8.704 4.084Z" fill="#000"/><path d="M92.468 163.837c-.216 1.13 1.496 3.836 2.236 4.258.74.422 2.74.979 3.116 1.31.376.33.64 1.142 1.164 1.46.524.319 2.516.283 2.764 0 .248-.282 0-1.301-.4-1.48a4.084 4.084 0 0 1-1.04-.466c-.224-.223-1.06-4.84-2.232-5.946-1.172-1.106-5.408-.191-5.608.864Z" fill="#FF4669"/><path opacity=".1" d="M92.468 163.837c-.216 1.13 1.496 3.836 2.236 4.258.74.422 2.74.979 3.116 1.31.376.33.64 1.142 1.164 1.46.524.319 2.516.283 2.764 0 .248-.282 0-1.301-.4-1.48a4.084 4.084 0 0 1-1.04-.466c-.224-.223-1.06-4.84-2.232-5.946-1.172-1.106-5.408-.191-5.608.864Z" fill="#000"/><path d="M135.748 149.174c-2.044 2.48-6.576 3.443-7.728 4.044-1.152.601-3.176 4.171-4.332 5.544-1.156 1.373-6.776 5.405-10.068 5.97-3.292.565-9.556-1.003-10.82-.959-1.264.044-5.948.824-6.136.911-.188.088-2.252 2.309-2.8 2.894s-2.356 2.125-2.544 2.292a.53.53 0 0 0-.096.4.52.52 0 0 0 .224.345c.248.179.74 1.094.284 1.357-.456.263-1.912.442-2.444.159-.532-.283-.908-1.162-1.176-1.616-.268-.454 1.468-3.646 1.796-4.613.328-.967-1.676-5.094-1.14-6.587.536-1.492 5.516-6.547 8.06-6.471h1.744c2.484 0 6.732-.064 10.68-.303 3.4-.199 6.568-.529 8.168-1.038 4.036-1.282 5.6-6.699 7.848-7.284s4.42.239 5.388.036c1.408-.298 4.988-2.822 5.636-2.464.976.578.804 5.756-.544 7.383Z" fill="#FF4669"/><path d="M96.312 164.871c.19-.165.342-.37.444-.6.112-.231.216-.466.308-.705.184-.474.304-.963.46-1.445a.027.027 0 0 1 .01-.012.023.023 0 0 1 .016-.005c.006 0 .011.001.016.005a.025.025 0 0 1 .01.012 6.291 6.291 0 0 1-.18 1.194 1.15 1.15 0 0 0 .252-.398.033.033 0 0 1 .017-.019.038.038 0 0 1 .025-.003.035.035 0 0 1 .02.017.032.032 0 0 1 .002.025 1.2 1.2 0 0 1-.356.502c-.024.079-.048.163-.076.242-.083.242-.205.47-.36.673-.17.2-.356.387-.556.557-.036.052-.092-.008-.052-.04Z" fill="#263238"/><path d="M96.82 152.832c-1.476-.103-3.64-.044-4.996.832-1.356.875-3.968 5.146-6 6.105-2.032.959-5.44.43-5.464.629-.024.199 3.228.935 5.52.235 2.292-.701 5.292-5.739 7.492-6.038a5.916 5.916 0 0 0 3.448-1.763Z" fill="#FF4669"/><path d="M127.408 146.862c.764-.724 2.08.752 1.372 1.425-.708.672-2.012-.832-1.372-1.425ZM136.68 144.339c.512-.187.688-2.193.236-2.838-.452-.645-3.48 1.321-3.448 1.99.032.669 2.652 1.047 3.212.848ZM124.24 144.836c.092-.294-1.648.549-3.06 1.867a8.64 8.64 0 0 0-1.704 2.428c-.268.772.836 5.727 2.488 6.451 1.128.49 2.624-3.148 2.712-4.02.088-.871-1.208-4.206-.436-6.726ZM107.064 157.158c-.76.426-1.6.49-2.456.617-1.169.176-2.31.5-3.396.963-1.432.585-3.048.856-3.824-.82-.776-1.675-.044-3.582 1.176-5.058 2.484 0 6.732-.064 10.68-.303.204 1.728-.752 3.805-2.18 4.601ZM113.888 156.709c-.9.616-2.588.449-3.056-.665-.264-.637.244-1.119.656-1.544.126-.128.259-.248.4-.359.246-.266.534-.49.852-.664.229-.159.509-.227.785-.191.276.035.53.171.711.382.844.844.6 2.388-.348 3.041Z" fill="#263238"/><path d="M118.84 150.842c.028.486.828 6.475 5.736 6.722.3 0-.02 1.007-.568.999-.548-.008-6-.863-6.028-7.458.02-.418.82-.661.86-.263Z" fill="#455A64"/><path d="M114 160.7c-.86.697-2.748 5.572-2.484 6.456.264.884 1.8 2.547 1.932 2.742.132.195.06.442.488.649.428.207 2.74.091 3.02-.195a1.38 1.38 0 0 0-.1-1.528c-.348-.303-1.2-.307-1.372-.506-.172-.199-.56-1.293-.4-1.628.16-.334 3.6-2.447 4-4.099.4-1.652-3.74-2.993-5.084-1.891Z" fill="#FF4669"/><path d="M112.3 163.554c.08-.247.176-.489.272-.728v-.02c.036-.279.068-.557.112-.832.032-.277.092-.551.18-.816 0-.024.048-.02.044 0-.032.267-.104.533-.152.796a6.453 6.453 0 0 0-.084.641l.076-.191c.333-.755.705-1.493 1.116-2.209h.028c-.332.76-.632 1.536-.94 2.308-.148.378-.296.765-.456 1.139-.16.374-.352.796-.48 1.194 0 .047-.092.028-.076-.02.136-.414.224-.84.36-1.262Z" fill="#263238"/><path opacity=".6" d="M261.228 162.48s-6.104-2.786-6.104-6.552c0-3.765 7.92-6.169 7.92-9.102 0-2.933-3.456-4.656-3.456-4.656s5.456 1.854 5.456 5.572c0 3.717-5.22 6.224-5.72 8.584-.692 3.272 1.904 6.154 1.904 6.154Z" fill="#DBDBDB"/><path opacity=".6" d="M260.928 162.48s6.108-2.201 6.108-5.151c0-2.949-7.92-4.851-7.92-7.164 0-2.312 3.452-3.661 3.452-3.661s-5.456 1.456-5.456 4.378c0 2.921 6 4.923 6.424 7.291.424 2.368-2.608 4.307-2.608 4.307Z" fill="#DBDBDB"/><path d="M264.068 171.916h-5.808v.904h5.808v-.904Z" fill="#FF4669"/><path d="M264.068 171.916h-5.808v.597h5.808v-.597Z" fill="#263238"/><path d="M270.964 169.488a3.292 3.292 0 0 1-3.272 1.393 3.428 3.428 0 0 1-.588-.167 3.928 3.928 0 0 1-.8-.43l.736-1.09c.137.096.283.178.436.247a1.938 1.938 0 0 0 2.432-.709c.8-1.114 1.08-3.658.276-4.633-.056-.075-.288-.187-1.224 0-.172.04-.368.084-.588.144-.172.06-.351.098-.532.115l-.024-.653-.064-.652.276-.072a8.646 8.646 0 0 1 1.324-.275c.688-.071 1.408 0 1.852.554 1.288 1.604.756 4.835-.24 6.228Z" fill="#FF4669"/><path d="M267.02 169.194c.137.096.283.178.436.247l-.352 1.273a3.928 3.928 0 0 1-.8-.43l.716-1.09ZM269.332 162.714l-.4 1.393c-.172.04-.368.084-.588.144-.172.06-.351.098-.532.115l-.024-.653-.064-.652.276-.072a8.51 8.51 0 0 1 1.332-.275Z" fill="#263238"/><path d="M253.44 161.011s.696 5.89 1.9 8.358c1.204 2.467 2.884 2.754 3.928 2.754h3.796c1.044 0 2.724-.275 3.928-2.754 1.204-2.48 1.9-8.358 1.9-8.358H253.44Z" fill="#FF4669"/><path d="M267.052 162.01a.692.692 0 0 1 .638.42.68.68 0 0 1-.146.747.694.694 0 0 1-.75.15.683.683 0 0 1 .258-1.317Zm-6.736.541a.68.68 0 0 0 .426.633.686.686 0 0 0 .75-.15.684.684 0 0 0-.492-1.167.686.686 0 0 0-.684.684Zm0 8.573a.68.68 0 0 0 .426.633.686.686 0 0 0 .75-.15.684.684 0 0 0-.492-1.167.695.695 0 0 0-.49.207.692.692 0 0 0-.194.493v-.016Zm-4.976-3.868a.681.681 0 0 0 .422.635.695.695 0 0 0 .751-.146.678.678 0 0 0 .151-.747.684.684 0 0 0-.636-.423.677.677 0 0 0-.486.198.682.682 0 0 0-.202.483Zm7.624 2.017a.68.68 0 0 0 .425.633.691.691 0 0 0 .938-.499.689.689 0 0 0-.293-.703.691.691 0 0 0-.869.085.684.684 0 0 0-.201.484Zm-8.056-6.722a.679.679 0 0 0 .424.632.69.69 0 0 0 .749-.146.688.688 0 0 0 .152-.745.69.69 0 0 0-1.325.259Zm5.492 4.609a.682.682 0 0 0 .423.636.695.695 0 0 0 .751-.148.677.677 0 0 0 .149-.748.694.694 0 0 0-.639-.421.695.695 0 0 0-.483.201c-.128.127-.2.3-.201.48Zm5.2.107a.682.682 0 0 0 .422.636.695.695 0 0 0 .751-.146.68.68 0 0 0-.485-1.17.683.683 0 0 0-.688.669v.011Zm-8-2.284a.682.682 0 0 0 .423.636.695.695 0 0 0 .751-.148.677.677 0 0 0 .149-.748.694.694 0 0 0-.639-.421.689.689 0 0 0-.65.407.658.658 0 0 0-.058.262l.024.012Zm.188 4.414a.683.683 0 0 0 .824.671.687.687 0 0 0 .498-.936.685.685 0 0 0-.638-.42.694.694 0 0 0-.496.188.68.68 0 0 0-.212.485l.024.012Zm5.524-4.414a.682.682 0 0 0 .423.636.695.695 0 0 0 .751-.148.677.677 0 0 0 .149-.748.694.694 0 0 0-.639-.421.687.687 0 0 0-.708.669l.024.012Z" fill="#fff"/><path d="m29.18 179.645 30.148-20.119 30.188-20.063 60.372-40.126 60.448-40.02L240.56 39.31l30.26-19.955-30.148 20.119-30.188 20.063-60.372 40.126-60.448 40.019-30.228 20.008-30.256 19.955Z" fill="#263238"/><path d="M53.624 60.46c2.14 11.387 6.976 25.134 9.2 27.422 2.8 2.898 21.848 8.756 22.8 8.916 2.368.334 7.836-16.51 5.316-16.975-3.832-.712-17.82-2.042-18.628-2.933-.808-.892-6.444-8.601-12.184-17.238-3.972-5.97-7.832-6.26-6.504.808Z" fill="#EB9481"/><path d="M83.74 95.799c.276.155 4.22 2.332 6.676 3.152 1.836.613 7.164 2.229 8.04.286.6-1.325-2.4-2.642-4.536-3.621-1.116-.518-2.464-1.756-2.1-2.464.636-1.246 3.504.147 5.376 1.333 3.624 2.297 8.4 6.368 10.752 4.581.884-.672-.056-1.99-1.46-3.327 2.3 1.568 4.768 2.881 5.784 2.173.58-.398.632-.991.344-1.672.72.267 1.364.247 1.836-.207.8-.768.472-1.966-.316-3.207a.927.927 0 0 0 .716-.43c1.728-2.388-6.12-9.811-8.904-10.587-8.2-2.296-16.94-2.289-16.94-2.289-3.36 2.468-5.276 16.275-5.268 16.279Z" fill="#EB9481"/><path d="M96.224 88.714a14.04 14.04 0 0 1 5.436 2.34c2.044 1.461 3.368 3.133 5.064 4.828.044.048-.024.116-.068.072-.8-.796-4.164-3.853-5.036-4.55a13.429 13.429 0 0 0-5.404-2.65s-.012-.044.008-.04ZM97.912 85.28c2.152.68 4.356 1.369 6.336 2.475 2.164 1.194 3.816 3.108 5.444 4.94a95.104 95.104 0 0 1 2.86 3.354c.04.048-.024.12-.068.068a125.156 125.156 0 0 0-5.12-5.508 17.752 17.752 0 0 0-5.712-3.913c-1.224-.521-2.488-.95-3.748-1.377-.024-.008-.016-.047.008-.04ZM100.364 82.318c2.096.518 3.924.963 5.748 2.166 2.42 1.592 4.708 4.206 5.512 5.13a84.734 84.734 0 0 1 2.572 3.14c.036.044-.04.103-.076.06a69.676 69.676 0 0 0-6.188-6.62 14.013 14.013 0 0 0-3.508-2.479 25.318 25.318 0 0 0-4.064-1.38s-.008-.02.004-.017Z" fill="#263238"/><path d="m87.704 78.768-6.692 18.428s-15.848-5.206-18.648-8.47c-2.8-3.263-7.54-19.72-8.8-27.657-1.26-7.936 2.724-7.562 6.196-2.464 3.472 5.099 12.128 17.513 12.628 17.791.5.279 15.316 2.372 15.316 2.372Z" fill="#FF4669"/><path d="m65.66 67.15-.108-.04a.627.627 0 0 1-.348-.493.79.79 0 0 0-.064-.21c-.06-.084-.116-.172-.18-.255a.75.75 0 0 0-.368-.203.804.804 0 0 0-.44.028c-.128.043-.256.075-.4.127.136 0 .268 0 .4.032a.77.77 0 0 1 .344.055.607.607 0 0 1 .364.474.794.794 0 0 0 .588.685.708.708 0 0 0 .34 0 1.171 1.171 0 0 0-.128-.2ZM54.772 54.973l.088.028c.145.044.3.044.444 0l.172-.052a1.607 1.607 0 0 0-.704.024ZM66.66 83.89a.712.712 0 0 1-.34-.068.627.627 0 0 1-.348-.49.794.794 0 0 0-.612-.668.776.776 0 0 0-.44.023c-.128.044-.26.076-.4.128.136 0 .268 0 .4.032a.772.772 0 0 1 .344.055.615.615 0 0 1 .364.474.794.794 0 0 0 .588.685.76.76 0 0 0 .444 0c.128-.044.256-.076.4-.128-.132-.032-.26-.032-.4-.043ZM64 75.862a.757.757 0 0 1-.284.203.623.623 0 0 1-.596-.08.802.802 0 0 0-1.2.25c-.056.124-.128.236-.18.363.107-.082.21-.17.308-.263a.802.802 0 0 1 .288-.19.627.627 0 0 1 .596.103.803.803 0 0 0 1.204-.287c.06-.12.128-.234.18-.362-.128.084-.22.175-.316.263Zm4.272 13.743a.74.74 0 0 1-.284.203.615.615 0 0 1-.592-.08.83.83 0 0 0-.904-.072.797.797 0 0 0-.304.323c-.06.123-.128.235-.18.362.108-.08.204-.175.304-.263a.745.745 0 0 1 .288-.19.628.628 0 0 1 .596.103.803.803 0 0 0 1.204-.287c.06-.12.128-.235.18-.362-.12.084-.212.175-.316.263h.008Zm-7.2-29.086-.096.02a.802.802 0 0 0-.688.585.749.749 0 0 0 0 .442c.044.127.076.258.128.398.02-.136.02-.267.032-.398a.755.755 0 0 1 .068-.339.626.626 0 0 1 .492-.346.847.847 0 0 0 .236-.072l-.172-.29ZM58.4 69.813c-.044-.127-.076-.258-.128-.398 0 .135 0 .267-.032.398a.76.76 0 0 1-.056.343.612.612 0 0 1-.476.362.802.802 0 0 0-.688.585.75.75 0 0 0 0 .442c.044.127.076.258.128.397.02-.135.02-.266.032-.397a.702.702 0 0 1 .068-.339.626.626 0 0 1 .492-.346.802.802 0 0 0 .672-.609.764.764 0 0 0-.012-.438Zm-2.98-7.522a.8.8 0 0 1-.288.191.626.626 0 0 1-.596-.103.802.802 0 0 0-.756-.116c0 .092.036.183.052.275a.579.579 0 0 1 .504.103.802.802 0 0 0 .904.068.757.757 0 0 0 .304-.323c.06-.119.128-.23.18-.358-.124.08-.224.175-.324.263h.02Zm15.936 14.408a.763.763 0 0 1-.34-.068.626.626 0 0 1-.348-.494.794.794 0 0 0-.705-.679.804.804 0 0 0-.347.039 3.35 3.35 0 0 0-.4.127c.136.02.268.02.4.028a.77.77 0 0 1 .344.06.607.607 0 0 1 .364.473.818.818 0 0 0 1.032.685c.128-.044.256-.076.4-.132-.156-.031-.284-.031-.42-.04h.02Zm6.58 13.368a.764.764 0 0 1-.34-.067.627.627 0 0 1-.348-.494.794.794 0 0 0-.705-.679.804.804 0 0 0-.347.038c-.136.035-.27.078-.4.128.136.02.268.02.4.028a.77.77 0 0 1 .344.06.607.607 0 0 1 .364.473.818.818 0 0 0 1.032.685c.128-.044.26-.076.4-.132-.152-.032-.284-.032-.42-.04h.02Zm4.668 2.217c-.044-.127-.076-.258-.128-.398 0 .136 0 .27-.028.398a.82.82 0 0 1-.06.343.613.613 0 0 1-.476.362.802.802 0 0 0-.688.585.753.753 0 0 0 0 .442c.044.127.076.254.132.398 0-.136 0-.267.028-.398a.742.742 0 0 1 .068-.339.618.618 0 0 1 .496-.346.801.801 0 0 0 .672-.609.792.792 0 0 0-.036-.438h.02Zm3.94-13.683a1.29 1.29 0 0 0-.044.131.75.75 0 0 0 0 .442c.044.131.076.259.128.398 0-.135 0-.27.032-.398a.738.738 0 0 1 .068-.334.676.676 0 0 1 .124-.171l-.308-.068Zm-9.532.601c-.044-.127-.076-.259-.132-.398 0 .135 0 .27-.028.398a.76.76 0 0 1-.06.342.613.613 0 0 1-.476.362.802.802 0 0 0-.688.585.792.792 0 0 0 0 .442c.044.128.076.255.132.398 0-.135 0-.27.028-.398a.742.742 0 0 1 .068-.338.618.618 0 0 1 .496-.346.802.802 0 0 0 .672-.61.84.84 0 0 0-.012-.437Zm-3.864 14.101c-.044-.127-.076-.255-.128-.398-.02.135-.02.27-.032.398a.751.751 0 0 1-.056.342.604.604 0 0 1-.476.363.406.406 0 0 0-.096 0l.464.187a.797.797 0 0 0 .324-.932v.04ZM82.8 83.242a.727.727 0 0 1-.288.19.628.628 0 0 1-.596-.103.802.802 0 0 0-.908-.043.797.797 0 0 0-.292.33c-.06.12-.128.235-.18.362.108-.084.204-.18.308-.267a.728.728 0 0 1 .284-.199.603.603 0 0 1 .592.08.803.803 0 0 0 .904.068.757.757 0 0 0 .304-.323c.06-.12.128-.235.18-.358-.104.08-.2.175-.308.263Zm-9.948 1.803a.68.68 0 0 1-.6.215.617.617 0 0 1-.284-.128.803.803 0 0 0-.908-.044.798.798 0 0 0-.292.33c-.06.12-.128.236-.18.359.108-.08.204-.175.304-.263a.77.77 0 0 1 .288-.199.61.61 0 0 1 .592.076.802.802 0 0 0 .904.072.758.758 0 0 0 .304-.323c.06-.12.128-.235.18-.362-.108.084-.2.18-.304.267h-.004Z" fill="#fff"/><path d="M79.816 88.842c.8-2.174 1.632-4.339 2.36-6.54.4-1.253.832-2.503 1.236-3.757 0-.047-.064-.08-.084-.032-.9 2.146-1.796 4.303-2.592 6.492s-1.6 4.35-2.376 6.535a66.593 66.593 0 0 0-1.2 3.77c0 .023.032.039.044 0 .98-2.106 1.8-4.283 2.612-6.468Z" fill="#263238"/><path opacity=".1" d="m73.032 94.302-.7-.279a91.792 91.792 0 0 1-4.4-1.886 32.774 32.774 0 0 1-.752-.354l-.364-.18-.132-.063-.4-.191c-.5-.255-.972-.51-1.412-.76l-.304-.18a11.052 11.052 0 0 1-1.924-1.372 2.898 2.898 0 0 1-.156-.16l-.144-.15c-2.8-3.264-7.544-19.722-8.8-27.658 0-.091-.028-.183-.044-.275v-.06a26.686 26.686 0 0 1-.192-2.148c-.06-3.929 1.828-4.49 4.06-2.675 5.264 12.485 13.216 33.086 15.664 38.391Z" fill="#000"/><path d="m66.836 99.102-36.4.103c.028-.796 5.2-23.501 9.336-31.92 5.284-10.793 8-11.66 9.636-12.246 2.084-.744 5.788-.374 6.672.04.996.462 4.172 5.97 5.312 10.034 2.272 8.147 5.956 33.507 5.444 33.989Z" fill="#FF4669"/><path d="M53.344 95.982a.68.68 0 0 1-.6.215.616.616 0 0 1-.284-.128.803.803 0 0 0-.908-.044.797.797 0 0 0-.292.33c-.06.12-.128.236-.18.363.108-.084.204-.18.308-.267a.728.728 0 0 1 .284-.199.61.61 0 0 1 .592.076.802.802 0 0 0 .904.072.758.758 0 0 0 .304-.323c.06-.12.128-.235.18-.358-.108.08-.204.175-.308.263Zm5.248-11.112a.689.689 0 0 1-.288.19.628.628 0 0 1-.596-.103.8.8 0 0 0-1.2.287c-.06.123-.128.234-.18.362.108-.08.204-.175.304-.263a.833.833 0 0 1 .288-.203.615.615 0 0 1 .592.08.802.802 0 0 0 .904.071.797.797 0 0 0 .304-.322c.06-.12.128-.235.18-.362-.1.083-.204.167-.308.263ZM41.708 88.45a.746.746 0 0 1-.288.192.619.619 0 0 1-.596-.104.803.803 0 0 0-1.204.287c-.06.123-.128.235-.18.362.112-.08.204-.175.308-.263a.86.86 0 0 1 .284-.203.621.621 0 0 1 .596.08.802.802 0 0 0 .9.071.799.799 0 0 0 .308-.322c.056-.12.128-.235.18-.362-.112.095-.208.187-.308.275v-.013Zm5.42-15.036a.744.744 0 0 1-.288.191.62.62 0 0 1-.596-.103.802.802 0 0 0-1.204.286c-.06.124-.128.235-.18.362.112-.08.204-.175.308-.262a.86.86 0 0 1 .284-.203.623.623 0 0 1 .596.08.802.802 0 0 0 .9.071.799.799 0 0 0 .308-.322c.056-.12.128-.235.18-.363-.112.08-.208.188-.308.275v-.012Zm-2.36-10.639a.745.745 0 0 1-.288.192.62.62 0 0 1-.596-.104.803.803 0 0 0-1.204.287c-.06.123-.128.234-.18.362.112-.08.204-.175.308-.263a.799.799 0 0 1 .284-.203.622.622 0 0 1 .596.08.802.802 0 0 0 .9.071.822.822 0 0 0 .308-.322c.056-.12.128-.235.18-.362-.112.095-.208.187-.308.274v-.011ZM55.4 62.28a.8.8 0 0 1-.288.191.628.628 0 0 1-.596-.103.803.803 0 0 0-.908-.044.797.797 0 0 0-.296.33c-.06.12-.128.235-.18.362.112-.083.204-.179.308-.266a.726.726 0 0 1 .284-.2.615.615 0 0 1 .592.08.803.803 0 0 0 .904.068.758.758 0 0 0 .304-.322c.06-.12.128-.231.18-.359-.104.092-.204.187-.304.275v-.012ZM44.468 95.217c-.044-.127-.076-.258-.128-.397 0 .135 0 .266-.032.398a.762.762 0 0 1-.056.342.622.622 0 0 1-.476.362.802.802 0 0 0-.688.585.753.753 0 0 0 0 .442c.044.127.076.255.128.398.02-.135.02-.267.032-.398a.752.752 0 0 1 .068-.338.627.627 0 0 1 .496-.347.802.802 0 0 0 .672-.609.793.793 0 0 0-.016-.425v-.013Zm-3.964-26.665c-.044-.128-.076-.26-.132-.399-.02.136 0 .267-.028.398a.709.709 0 0 1-.06.343.614.614 0 0 1-.476.362.802.802 0 0 0-.688.585.753.753 0 0 0 0 .442c.044.127.076.254.128.398 0-.135 0-.267.032-.398a.701.701 0 0 1 .068-.338.614.614 0 0 1 .492-.347.802.802 0 0 0 .672-.609.84.84 0 0 0-.008-.434v-.004ZM58.4 69.813c-.044-.127-.076-.258-.128-.398 0 .135 0 .267-.032.398a.761.761 0 0 1-.056.343.613.613 0 0 1-.476.362.802.802 0 0 0-.688.585.748.748 0 0 0 0 .442c.044.127.076.258.128.397.02-.135.02-.266.032-.397a.701.701 0 0 1 .068-.339.625.625 0 0 1 .492-.346.801.801 0 0 0 .672-.609.765.765 0 0 0-.012-.438Zm-23.172 13.6c-.044-.127-.076-.255-.128-.398 0 .135 0 .266-.032.398a.761.761 0 0 1-.056.342.617.617 0 0 1-.476.362.862.862 0 0 0-.52.27l-.18.658a.655.655 0 0 0 .024.095c.044.127.076.259.128.398 0-.135 0-.266.032-.398a.676.676 0 0 1 .068-.334.617.617 0 0 1 .492-.35.802.802 0 0 0 .672-.61.765.765 0 0 0-.024-.433Zm31.108 12.652c-.044-.127-.076-.254-.128-.398-.02.136-.02.27-.028.398a.84.84 0 0 1-.06.347.614.614 0 0 1-.476.362.802.802 0 0 0-.704.68.792.792 0 0 0 .028.347c.044.127.076.254.132.397.02-.135.02-.27.028-.397a.74.74 0 0 1 .068-.339.617.617 0 0 1 .496-.346.803.803 0 0 0 .684-.704.792.792 0 0 0-.04-.347ZM47.872 80.99c-.044-.127-.076-.255-.132-.398 0 .135 0 .27-.028.398a.725.725 0 0 1-.06.346.613.613 0 0 1-.476.363.801.801 0 0 0-.688.58.764.764 0 0 0 0 .446c.044.128.076.255.128.398 0-.135 0-.27.032-.398a.693.693 0 0 1 .068-.338.605.605 0 0 1 .492-.346.802.802 0 0 0 .672-.61.856.856 0 0 0-.008-.441Zm1.096-23.956c-.044-.127-.076-.258-.132-.398 0 .14 0 .271-.028.398a.709.709 0 0 1-.06.343.613.613 0 0 1-.476.362.802.802 0 0 0-.688.585.753.753 0 0 0 0 .442c.044.127.076.254.128.398.02-.136.02-.267.028-.398a.693.693 0 0 1 .072-.339.605.605 0 0 1 .492-.346.802.802 0 0 0 .672-.609.84.84 0 0 0-.008-.438Zm14.716 19.04a.618.618 0 0 1-.572-.087.8.8 0 0 0-1.2.25c-.056.124-.128.236-.18.363.107-.082.21-.17.308-.263a.8.8 0 0 1 .288-.19.626.626 0 0 1 .596.103.825.825 0 0 0 .8.095c-.012-.091-.028-.179-.04-.27Zm1.116 6.651c-.088.028-.18.056-.264.092.094.014.189.022.284.024-.02-.036-.02-.056-.02-.116Zm-10.136-4.827a.752.752 0 0 1-.34-.068.62.62 0 0 1-.348-.494.793.793 0 0 0-.376-.569.804.804 0 0 0-.68-.071c-.128.043-.256.075-.4.127.136 0 .272 0 .4.028a.805.805 0 0 1 .344.06.6.6 0 0 1 .364.473.813.813 0 0 0 .588.685.803.803 0 0 0 .448 0c.128-.044.256-.076.4-.132-.132-.032-.264-.028-.4-.04Zm-18.8 16.138a.752.752 0 0 1-.34-.067.62.62 0 0 1-.348-.494.793.793 0 0 0-.376-.569.804.804 0 0 0-.68-.072c-.128.044-.256.076-.4.128.136.02.272.02.4.028a.805.805 0 0 1 .344.06.612.612 0 0 1 .368.473.794.794 0 0 0 .684.7.805.805 0 0 0 .348-.027c.128-.044.256-.076.4-.132-.136-.02-.264-.02-.404-.028h.004Zm13.856-4.087a.75.75 0 0 1-.34-.068.618.618 0 0 1-.348-.493.795.795 0 0 0-1.056-.641 3.61 3.61 0 0 0-.4.127c.136.02.272.02.4.028a.779.779 0 0 1 .348.06.616.616 0 0 1 .364.474.794.794 0 0 0 .588.684.804.804 0 0 0 .444 0c.128-.044.256-.076.4-.131-.12-.04-.268-.04-.4-.04Zm-9.28-9.99a.71.71 0 0 1-.34-.067.615.615 0 0 1-.348-.49.794.794 0 0 0-.612-.669.775.775 0 0 0-.44.024c-.128.044-.26.076-.4.128.136.023.268.02.4.031a.72.72 0 0 1 .344.06.617.617 0 0 1 .364.47.814.814 0 0 0 1.032.688c.128-.043.256-.075.4-.127-.132-.04-.264-.04-.4-.052v.004Zm14.02-25.21a.8.8 0 0 0 .844.244l.208-.068a9.75 9.75 0 0 0-1.052-.18v.005Zm5.48 38.066a.686.686 0 0 1-.34-.08.611.611 0 0 1-.352-.49.794.794 0 0 0-.612-.668.853.853 0 0 0-.44.024c-.128.044-.256.075-.4.131.136 0 .268 0 .4.028a.773.773 0 0 1 .344.06.608.608 0 0 1 .364.473.817.817 0 0 0 .588.685.76.76 0 0 0 .444 0c.128-.04.26-.076.4-.128-.128-.031-.26-.031-.396-.04v.005Zm-8.4-24.258a.75.75 0 0 1-.34-.068.618.618 0 0 1-.348-.494.795.795 0 0 0-1.052-.64c-.128.043-.26.075-.4.127.14.02.272.02.4.028a.831.831 0 0 1 .344.06.616.616 0 0 1 .364.473.794.794 0 0 0 .588.685c.145.044.3.044.444 0 .128-.044.256-.076.4-.132-.148-.035-.28-.031-.416-.043l.016.003Z" fill="#fff"/><path d="M56.288 63.831c.248 2.842.44 5.684.624 8.525.184 2.842.328 5.692.492 8.534.164 2.841.272 5.69.376 8.54l.144 4.271c.032 1.425.08 2.85.092 4.275-.128-1.421-.224-2.842-.34-4.263l-.288-4.262c-.184-2.846-.324-5.692-.488-8.534a404.098 404.098 0 0 1-.376-8.54c-.104-2.85-.2-5.696-.236-8.546ZM58.844 72.456a.532.532 0 0 1-.601.568.537.537 0 0 1-.45-.389.53.53 0 0 1 .479-.673.538.538 0 0 1 .572.494ZM59.012 77.96a.532.532 0 0 1-.496.57.546.546 0 0 1-.576-.498.532.532 0 0 1 .5-.57.539.539 0 0 1 .572.498ZM59.2 83.46a.532.532 0 0 1-.601.568.537.537 0 0 1-.45-.388.53.53 0 0 1 .479-.673.537.537 0 0 1 .572.494ZM59.348 88.965a.532.532 0 0 1-.496.57.545.545 0 0 1-.576-.498.533.533 0 0 1 .5-.57.538.538 0 0 1 .572.498ZM59.516 94.465a.531.531 0 0 1-.496.57.538.538 0 0 1-.518-.294.531.531 0 0 1 .338-.753.538.538 0 0 1 .676.477Z" fill="#263238"/><path d="M49.512 63.334c-3.2 6.475-14.428 20.357-18.62 23.31-2.548 1.796-10.4 1.405-10.484-3.665-.084-5.07 23.308-25.44 27.1-27.191 4.016-1.863 5.484.473 2.004 7.546Z" fill="#FF4669"/><path d="m34.236 83.604 3.128-3.777c1.04-1.258 2.092-2.507 3.116-3.777s2.06-2.531 3.084-3.805c.512-.637 1.024-1.274 1.524-1.918.5-.645 1-1.29 1.516-1.927a67.815 67.815 0 0 1-2.8 4.032c-.98 1.313-2 2.595-3.024 3.869a85.592 85.592 0 0 1-3.2 3.725c-1.1 1.218-2.184 2.424-3.344 3.578Z" fill="#263238"/><path d="M43.716 72.3a13.308 13.308 0 0 1 2.324-2.22c-.336.422-.7.821-1.092 1.194-.385.371-.797.715-1.232 1.027Z" fill="#263238"/><path d="M24.6 76.69a.728.728 0 0 1-.288.188.614.614 0 0 1-.292.028l-.228.27a.803.803 0 0 0 .628-.067.757.757 0 0 0 .304-.323c.06-.12.128-.235.18-.362-.104.083-.204.18-.304.267Zm10.848-2.32a.716.716 0 0 1-.288.191.626.626 0 0 1-.596-.103.803.803 0 0 0-1.2.286c-.06.124-.128.235-.184.363.107-.083.21-.17.308-.263a.8.8 0 0 1 .284-.203.624.624 0 0 1 .596.08.802.802 0 0 0 .904.071.798.798 0 0 0 .304-.322c.06-.124.128-.235.18-.362-.112.08-.204.175-.308.262Zm9.32-11.582a.743.743 0 0 1-.288.192.618.618 0 0 1-.596-.104.802.802 0 0 0-1.204.287c-.06.123-.128.234-.18.362.112-.08.204-.175.308-.263a.8.8 0 0 1 .284-.203.624.624 0 0 1 .596.08.803.803 0 0 0 .9.071.822.822 0 0 0 .308-.322c.056-.12.128-.235.18-.362-.112.083-.208.175-.308.262ZM27.74 85.739c-.044-.128-.076-.256-.128-.399 0 .136 0 .27-.028.398a.792.792 0 0 1-.06.342.596.596 0 0 1-.476.363.821.821 0 0 0-.688.585.793.793 0 0 0 0 .445l.036.116h.12v-.14a.743.743 0 0 1 .068-.338.618.618 0 0 1 .496-.346.803.803 0 0 0 .572-.374.793.793 0 0 0 .072-.677l.016.024Zm.592-13.533c.023.079.05.156.08.231.015-.112.025-.225.028-.338l-.108.107Zm.944-.947a.797.797 0 0 0 .332-.33c-.112.119-.224.23-.332.342v-.012Zm11.228-2.714c-.044-.128-.076-.26-.132-.398-.02.135 0 .266-.028.398a.71.71 0 0 1-.06.342.614.614 0 0 1-.476.362.802.802 0 0 0-.688.585.753.753 0 0 0 0 .442c.044.127.076.255.128.398 0-.135 0-.267.032-.398a.702.702 0 0 1 .068-.338.614.614 0 0 1 .492-.347.802.802 0 0 0 .672-.609.839.839 0 0 0-.008-.425v-.012Zm8.464-11.522c-.044-.128-.076-.26-.132-.398 0 .139 0 .27-.028.398a.71.71 0 0 1-.06.342.614.614 0 0 1-.476.362.802.802 0 0 0-.688.585.753.753 0 0 0 0 .442c.044.127.076.255.128.398.02-.136.02-.267.028-.398a.694.694 0 0 1 .072-.339.606.606 0 0 1 .492-.346.802.802 0 0 0 .672-.609.839.839 0 0 0-.008-.426v-.011ZM20.62 83.181a.659.659 0 0 1-.204-.02 1.834 1.834 0 0 0 0 .215.802.802 0 0 0 .208-.036c.128-.044.26-.075.4-.127-.136-.032-.268-.032-.404-.032Zm9.052-2.034a.704.704 0 0 1-.34-.067.62.62 0 0 1-.348-.49.794.794 0 0 0-.612-.669.803.803 0 0 0-.444.024c-.128.044-.256.076-.4.128.136 0 .272 0 .4.032a.764.764 0 0 1 .344.055.607.607 0 0 1 .364.474.794.794 0 0 0 .588.684.777.777 0 0 0 .448 0c.128-.043.256-.075.4-.127-.132-.048-.268-.048-.4-.06v.016Zm4.932-14.304a.764.764 0 0 1-.34-.067.556.556 0 0 1-.156-.112l-.216.199a.805.805 0 0 0 .732.151c.128-.043.256-.075.4-.131-.152-.048-.284-.048-.42-.056v.016Zm3.712 12.052h.136l.076-.092-.212.091Z" fill="#fff"/><path d="M56.688 63.282c-2.14.374-5.54-3.236-6.8-6.058-.088-.195.312-2.14.688-4.533.224-1.453.44-3.076.536-4.573 0-.306 8.84 2.902 8.84 2.902a24.836 24.836 0 0 0-1.236 5.683c-.008.206 0 .412.024.617v.103c.124 1.178.012 5.497-2.052 5.859Z" fill="#EB9481"/><path d="M51.672 48.198c.256 2.555 1.372 8.756 6.156 9.213.307.028.617.028.924 0a.812.812 0 0 0 0-.103 3.412 3.412 0 0 1-.024-.613 24.764 24.764 0 0 1 1.236-5.687s-6.364-2.305-8.292-2.81Z" fill="#263238"/><path d="M52.8 35.904c-1.856 2.893-2.92 12.62-1.344 15.362 2.284 3.98 7.36 5.895 10.928 2.707 3.464-3.089 4.632-15.789 2.748-18.424-2.776-3.88-9.584-3.92-12.332.355Z" fill="#EB9481"/><path d="M59.808 44.27c0-.028-.052.027-.056.051-.028.661-.172 1.41-.756 1.592-.02 0-.02.04 0 .036.704-.056.88-1.05.812-1.68Z" fill="#263238"/><path d="M59.296 43.533c-1.004-.163-1.248 1.95-.316 2.102.932.15 1.16-1.962.316-2.102ZM63.312 44.731c0-.028.044.036.04.064-.092.649-.096 1.413.444 1.703v.036c-.688-.19-.672-1.202-.484-1.803Z" fill="#263238"/><path d="M63.952 44.114c1.016.048.852 2.17-.092 2.126-.944-.044-.76-2.162.092-2.126Z" fill="#263238"/><path d="M58.556 41.746c.28.004.558-.008.836-.036.298.028.596-.045.848-.207a.469.469 0 0 0 .084-.545 1.043 1.043 0 0 0-.996-.438 1.548 1.548 0 0 0-1.064.398.485.485 0 0 0 .292.828ZM65.056 42.69a7.788 7.788 0 0 1-.78-.319 1.368 1.368 0 0 1-.732-.482.464.464 0 0 1 .088-.545 1.03 1.03 0 0 1 1.08-.075c.376.13.69.395.88.744a.471.471 0 0 1-.268.664.477.477 0 0 1-.268.013Z" fill="#A6A6A6"/><path d="M58.06 50.22c.132.17.256.398.48.45.235.024.473-.003.696-.08a.024.024 0 0 1 0 .04.824.824 0 0 1-.836.254.704.704 0 0 1-.424-.64c.024-.04.064-.048.084-.024ZM58.944 48.341a2.168 2.168 0 0 0 1.308 1.194c.247.082.504.126.764.131a.61.61 0 0 0 .148 0h.14a.156.156 0 0 0 .144-.13.382.382 0 0 0 0-.069v-.06a17.88 17.88 0 0 0 .112-1.273c.168.116 1.016.649 1.032.398.128-2.197.268-4.637-.048-6.85a.06.06 0 0 0-.058-.044.06.06 0 0 0-.058.045c-.204 2.105-.048 4.234-.22 6.368a3.66 3.66 0 0 0-.968-.446c-.072 0-.056 1.492-.104 1.715v.024c-.824 0-1.404-.326-2.128-.991-.04-.103-.096-.068-.064-.012Z" fill="#263238"/><path d="M60.76 49.352a2.525 2.525 0 0 1-1.108.693c-.23.062-.474.048-.696-.04-.484-.203-.44-.685-.304-1.083.078-.21.178-.412.3-.6.474.53 1.108.892 1.808 1.03Z" fill="#263238"/><path d="M59.652 50.048c-.23.063-.474.049-.696-.04-.484-.202-.44-.684-.304-1.082a1.202 1.202 0 0 1 1 1.122Z" fill="#FF98B9"/><g opacity=".2" fill="#000"><path opacity=".2" d="M61.78 39.625c.33.091.665.16 1.004.207.344.032.692 0 1.036.04a5.62 5.62 0 0 1 1.836.656c.052.024.04.06 0 .036a4.817 4.817 0 0 0-1.972-.541 6.123 6.123 0 0 1-1.68-.195c-1.248-.354-2.52-.545-3.776-.108a6.089 6.089 0 0 1 3.552-.095ZM61.884 38.717c.311.089.628.155.948.2.328.031.656 0 .984.035a5.252 5.252 0 0 1 1.74.625c.052.024.036.056 0 .032a4.663 4.663 0 0 0-1.868-.514 5.686 5.686 0 0 1-1.6-.182c-1.18-.339-2.4-.518-3.58-.104a5.88 5.88 0 0 1 3.376-.092Z"/></g><path d="M66.188 39.45c-3.692 1.564-7.46-2.67-7.46-2.67a3.597 3.597 0 0 1-1.763 1.416 3.616 3.616 0 0 1-2.265.088s-1.74 5.333-3.2 5.034c-2.204-.457-1.38-8.035-.4-9.36.98-1.326 2.96-1.322 2.96-1.322s.368-1.106 1.94-1.87c1.74-.844 6.628 1.739 6.628 1.739a4.908 4.908 0 0 1 1.696-1.52 1.393 1.393 0 0 1 1.928.572c-.357.348-.63.77-.8 1.238-.58 1.548.732 1.807 1.012.358a2.275 2.275 0 0 0-.208-1.592c.84-.82 1.96-.915 2.5-.278.976 1.146.504 6.87-2.568 8.167Z" fill="#A6A6A6"/><path d="M57.7 47.573a2.802 2.802 0 0 1-1.317-.801 2.78 2.78 0 0 1-.544-2.903c.191-.486.517-.908.938-1.22a2.809 2.809 0 0 1 4.08.822 2.776 2.776 0 0 1-.744 3.654 2.808 2.808 0 0 1-2.413.448Zm1.404-4.987a2.432 2.432 0 0 0-2.643.951 2.4 2.4 0 0 0 .044 2.796 2.43 2.43 0 0 0 3.878.026 2.4 2.4 0 0 0 .489-1.385 2.38 2.38 0 0 0-.466-1.5 2.4 2.4 0 0 0-1.302-.888ZM64.04 48.528c-1.032-.286-1.668-1.592-1.444-3.029a3.316 3.316 0 0 1 .888-1.83 1.744 1.744 0 0 1 1.602-.593 1.749 1.749 0 0 1 1.342 1.054c.3.625.397 1.328.28 2.01-.24 1.517-1.356 2.603-2.488 2.428l-.18-.04Zm1.124-5.058-.136-.028a1.49 1.49 0 0 0-1.28.49 2.95 2.95 0 0 0-.8 1.623c-.204 1.313.4 2.5 1.312 2.643.912.143 1.856-.796 2.06-2.114a2.92 2.92 0 0 0-.244-1.787 1.54 1.54 0 0 0-.912-.827Z" fill="#EBEBEB"/><path d="m61.104 45.26-.196-.318c.476-.282 1.516-.6 2.08.223l-.312.207c-.5-.74-1.528-.135-1.572-.111ZM48.692 44.047l-.3-.22c.104-.139 1.032-1.364 1.876-1.368.844-.004 5.664 1.23 5.868 1.281l-.092.362c-1.396-.354-5.164-1.277-5.776-1.273-.612.004-1.328.88-1.576 1.218Z" fill="#EBEBEB"/><path d="M52.508 44.01s-1.2-3.581-2.704-3.223c-1.504.358-1.164 5.174.204 6.197a1.567 1.567 0 0 0 2.316-.259l.184-2.714Z" fill="#EB9481"/><path d="M49.932 42.16c-.024 0-.036.024 0 .04.952.768 1.236 1.99 1.34 3.184-.204-.51-.58-.864-1.2-.62-.036 0 0 .063 0 .067a1.004 1.004 0 0 1 .96.656c.123.337.211.685.264 1.04.024.115.208.11.204 0v-.029c.388-1.456-.136-3.765-1.568-4.338Z" fill="#263238"/><path d="m58.736 57.272-2.64 5.286-5.896-7.634-2.068 2.046s5.36 11.733 5.448 11.24l2.624-4.53 2.824 3.63.532-8.322-.824-1.716Z" fill="#FF4669"/><path d="M59.516 63.202c.044-1.377.124-2.762.108-4.139 0-.048-.072-.075-.088-.02-.4 1.294-.528 6.56-.656 7.813-.116-.16-2.632-3.208-2.664-3.184-.54.704-2.464 4-2.604 4.302-.848-1.866-4.492-9.241-5.536-11.028a.045.045 0 0 0-.042-.03.045.045 0 0 0-.032.015.043.043 0 0 0-.006.05c.72 1.95 5.408 11.678 5.492 11.662a54.592 54.592 0 0 0 2.748-4.776c.4.649 2.92 4.06 2.948 3.857.187-1.5.298-3.01.332-4.522Z" fill="#263238"/><path d="M29.864 48.608c1.804-3.793 4.684-8.975 6.476-9.688 1.88-.748 8.6-3.116 10.336-3.184 1.736-.067 7.792 2.062 8.84 3.184.844.916-.8 2.902-4.288 2.42-3.26-.45-4-.716-4.968-.617-.968.1-3.888 2.205-3.716 3.582.104.824 1.936 2.32 3.424 2.142 1.488-.18 2.456-1.569 4.328-2.313 1.872-.744 4.452.223 4.4.98-.052.756-1.04.795-3.144 2.785-1.352 1.274-2.4 3.88-5.2 5.923-1.408 1.022-4.248 4.035-4.248 4.035l-12.24-9.25Z" fill="#EB9481"/><path d="M36.34 38.92c1.892-1.592 6.264-4.139 9.864-4.378 2.432-.15 8.764 5.807 8.096 7.164-.668 1.358-1.944.96-3.764.144-.664-.295-3.896-2.735-4.756-2.17-1.236.797-3.548 4.196-3.548 4.196L36.34 38.92Z" fill="#EB9481"/><path d="M54.288 41.105c-.44-1.81-2.216-3.255-4.032-4.529-.028-.02-.06.024-.032.044.464.322 3.276 2.858 4.036 4.501.008.02.032.004.028-.016Z" fill="#263238"/><path d="M36.34 38.92c1.892-1.592 6.264-4.139 9.864-4.378 2.432-.15 6.88 6.333 6.216 7.686-.664 1.353-2.536.891-4.344-.442-.584-.434-2.292-2.659-3.152-2.093-1.24.796-4.272 2.845-4.272 2.845L36.34 38.92Z" fill="#EB9481"/><path d="M42.436 41.269c.304-.251.4-.339.716-.581.316-.243.616-.482.936-.7a3.02 3.02 0 0 1 .892-.495c.32-.067.654-.031.952.104.684.287 1.176.927 1.668 1.457.492.529 1.732 1.636 2.824 1.854.295.076.604.088.904.036.225-.029.44-.11.628-.239.7-.632.4-1.695.02-2.503a14.029 14.029 0 0 0-3.132-3.952c-.296-.283-.596-.553-.9-.828a3.281 3.281 0 0 0-1.168-.764c-.732-.235-2.172.131-2.616.239-.032 0-.04-.044 0-.052.54-.14 1.948-.7 3.116-.27.412.198.786.468 1.104.795.356.307.704.625 1.04.952a17.05 17.05 0 0 1 1.84 2.033 7.335 7.335 0 0 1 1.3 2.317 2.138 2.138 0 0 1-.536 2.145 1.91 1.91 0 0 1-1.556.29 3.7 3.7 0 0 1-.932-.302 15.877 15.877 0 0 1-1.844-1.226c-.564-.458-1.004-1.067-1.6-1.473a1.29 1.29 0 0 0-.98-.238 3.51 3.51 0 0 0-.92.425c-.58.295-1.13.643-1.644 1.04-.148.115-.236.059-.112-.064Z" fill="#263238"/><path d="M34.852 40.353c.764-.796 2.776-4.434 3.904-5.389 1.128-.955 5.868-3.98 7.42-3.319 1.948.856-1.3 3.817-2.828 4.979-1.528 1.162-2.148 3.75-2.148 3.75l-6.348-.02Z" fill="#EB9481"/><path d="M45.6 34.626c-.524.358-1.024.796-1.508 1.194a12.28 12.28 0 0 0-1.372 1.194 5.562 5.562 0 0 0-.916 1.528c-.112.275-.212.55-.3.828-.088.279-.168.625-.272.928 0 .031.036.051.048 0 .214-.546.462-1.078.744-1.593.281-.54.628-1.044 1.032-1.5.8-.903 1.788-1.628 2.6-2.523.036-.056-.016-.096-.056-.056ZM45.228 46.447a2.654 2.654 0 0 0 1.896-.53c.5-.334.984-.704 1.488-1.035a6.31 6.31 0 0 1 1.6-.831 7.237 7.237 0 0 1 2-.227 3.964 3.964 0 0 1 1.904.398c.48.258.964.796.668 1.369-.15.258-.348.485-.584.669a5.97 5.97 0 0 1-.712.513c-.5.322-1.028.6-1.496.967a9.25 9.25 0 0 0-1.548 1.815c-.176.23-1.312 1.83-1.74 2.388-.36.46-.762.886-1.2 1.274-.428.352-.877.679-1.344.979-.51.322-.982.7-1.408 1.126 0 0-.048 0-.036-.032.564-.9 1.512-1.468 2.376-2.038 1.12-.736 3.728-4.708 4.188-5.241.772-.888 1.888-1.274 2.756-2.038.196-.175.5-.426.512-.716a.822.822 0 0 0-.46-.65 3.347 3.347 0 0 0-1.868-.318 8.503 8.503 0 0 0-1.928.215 6.265 6.265 0 0 0-1.568.717c-.56.342-1.1.7-1.68 1.003a2.655 2.655 0 0 1-1.848.31c.004-.048.004-.091.032-.087ZM54.52 38.399c-.424-.235-.84-.486-1.264-.708 0 0 0-.024 0 0 .512.23 1.036.43 1.548.656a1.654 1.654 0 0 1 .972.876 1.188 1.188 0 0 1-.308 1.17 3.283 3.283 0 0 1-1.176.709v-.036c.644-.327 1.656-1.007 1.2-1.863a2.21 2.21 0 0 0-.972-.804ZM52.196 42.45c.503.082 1.019.02 1.488-.178.195-.096.357-.247.464-.434.057-.103.096-.215.116-.33a.535.535 0 0 0-.028-.355c-.02-.028.028-.047.032 0 .02.066.044.132.072.195a.848.848 0 0 1-.02.514c-.084.24-.25.444-.468.577a1.867 1.867 0 0 1-1.664.067c-.024-.023-.012-.055.008-.055Z" fill="#263238"/><path d="M42.068 57.909c-1.276 3.8-10.528 23.944-12.96 26.726-2.432 2.782-7.968 3.124-9.232-2.205-1.264-5.33 8.084-29.986 10-33.83 1.048-2.126 12.656 7.916 12.192 9.309Z" fill="#EB9481"/><path d="M43.716 60.6 28.18 50.517s-8.084 23.036-8.588 30.248c-.364 5.174 5.668 9.365 10.968 2.627s13.156-22.794 13.156-22.794Z" fill="#FF4669"/><path d="M24.6 76.69a.728.728 0 0 1-.288.188.615.615 0 0 1-.596-.1.803.803 0 0 0-1.212.287c-.06.12-.128.235-.18.358.112-.08.204-.175.308-.263a.756.756 0 0 1 .284-.199.623.623 0 0 1 .596.076.802.802 0 0 0 .9.072.757.757 0 0 0 .304-.323c.06-.12.128-.235.18-.362-.096.084-.196.18-.296.267Zm10.112-20.85a.704.704 0 0 1-.288.186.619.619 0 0 1-.596-.099.802.802 0 0 0-.908-.044.797.797 0 0 0-.292.33c-.06.12-.128.235-.18.359.108-.08.204-.175.304-.263a.767.767 0 0 1 .288-.199.615.615 0 0 1 .592.076.803.803 0 0 0 .904.071.757.757 0 0 0 .304-.322c.06-.12.128-.235.18-.362-.112.083-.22.179-.308.266Zm-5.488 6.451a.8.8 0 0 1-.288.191.626.626 0 0 1-.596-.103.802.802 0 0 0-.908-.044.797.797 0 0 0-.292.33c-.06.12-.132.235-.184.362.112-.083.204-.179.308-.266a.801.801 0 0 1 .284-.2.61.61 0 0 1 .596.08.803.803 0 0 0 1.208-.255c.06-.119.128-.234.18-.358-.112.08-.204.175-.308.263Zm6.224 12.08a.716.716 0 0 1-.288.19.626.626 0 0 1-.596-.103.802.802 0 0 0-1.2.286c-.06.124-.128.235-.184.363.107-.083.21-.17.308-.263a.8.8 0 0 1 .284-.203.624.624 0 0 1 .596.08.802.802 0 0 0 .904.071.798.798 0 0 0 .304-.322c.06-.124.128-.235.18-.362-.112.08-.204.175-.308.262Zm2.62-14.946c-.04-.127-.076-.254-.128-.398 0 .136 0 .271-.028.398a.839.839 0 0 1-.06.347.613.613 0 0 1-.476.362.805.805 0 0 0-.581.355.793.793 0 0 0-.095.672c.044.127.076.254.132.398 0-.136 0-.271.028-.398a.74.74 0 0 1 .068-.339.619.619 0 0 1 .496-.346.803.803 0 0 0 .572-.374.793.793 0 0 0 .072-.677ZM27.74 85.737c-.044-.127-.076-.255-.128-.398 0 .136 0 .27-.028.398a.792.792 0 0 1-.06.342l.264-.15a.733.733 0 0 0-.048-.192Zm1.912-15.422c-.044-.128-.076-.255-.128-.398 0 .135 0 .266-.032.398a.76.76 0 0 1-.056.342.604.604 0 0 1-.476.362.802.802 0 0 0-.688.621.75.75 0 0 0 0 .442c.044.127.076.259.128.398.024-.136 0-.267.032-.398a.726.726 0 0 1 .068-.334.621.621 0 0 1 .496-.35.801.801 0 0 0 .683-.702.793.793 0 0 0-.039-.346l.012-.035ZM20.62 83.182a.695.695 0 0 1-.336-.068.617.617 0 0 1-.348-.49.795.795 0 0 0-.296-.513c.052.37.138.733.256 1.087a.704.704 0 0 0 .296.155.804.804 0 0 0 .444 0c.128-.044.26-.075.4-.127-.148-.044-.28-.044-.416-.044Zm9.052-2.034a.704.704 0 0 1-.34-.067.62.62 0 0 1-.348-.49.795.795 0 0 0-.612-.669.803.803 0 0 0-.444.024c-.128.044-.256.076-.4.128.136 0 .272 0 .4.032a.764.764 0 0 1 .344.055.607.607 0 0 1 .364.474.794.794 0 0 0 .588.684.777.777 0 0 0 .448 0c.128-.043.256-.075.4-.127-.132-.048-.268-.048-.4-.06v.016Zm-3.028-24.31a.687.687 0 0 1-.336-.067.637.637 0 0 1-.192-.144c-.036.1-.068.195-.1.295.063.04.132.07.204.088.145.044.3.044.444 0 .128-.044.26-.076.4-.128-.152-.048-.264-.048-.42-.06v.016ZM24 67.828a.704.704 0 0 1-.34-.069.62.62 0 0 1-.348-.489.794.794 0 0 0-.372-.57c-.028.104-.06.208-.088.311a.58.58 0 0 1 .136.303.794.794 0 0 0 .584.684.775.775 0 0 0 .448 0c.128-.044.256-.075.4-.127-.172-.032-.308-.032-.42-.044Zm10.624-1a.763.763 0 0 1-.34-.068.627.627 0 0 1-.348-.493.794.794 0 0 0-.705-.68.803.803 0 0 0-.347.04c-.128.043-.26.075-.4.127.136 0 .268 0 .4.027a.831.831 0 0 1 .344.06.608.608 0 0 1 .364.474.814.814 0 0 0 1.032.684c.128-.043.256-.075.4-.131-.152-.032-.284-.032-.42-.04h.02Z" fill="#fff"/><path d="M41.376 63.326C39.02 61.9 29.6 55.72 27.628 54.259c-.132-.103-.1-.21.052-.123 7.172 4.091 11.508 7.562 13.752 9.094.056.052.004.132-.056.096Z" fill="#263238"/><path d="M35.6 75.465c1.86-3.073 3.652-6.185 5.288-9.385.456-.892.904-1.79 1.344-2.694.424-.872.852-1.74 1.236-2.627-.324-.251-1.744-1.286-1.896-1.441a.068.068 0 0 1 .072-.104c.192.084 1.848 1.159 2.2 1.45.048.039-.776 1.762-1.152 2.586-.376.824-.76 1.644-1.156 2.46-.8 1.616-1.6 3.208-2.476 4.776a115.405 115.405 0 0 1-2.92 5.01c-.888 1.413-2.94 3.925-.54-.031Z" fill="#263238"/><path d="M106.72 98.835H71.172v1.584h35.548v-1.584Z" fill="#455A64"/><path d="M106.724 98.835v1.584H82.556l1.22-1.584h22.948Z" fill="#263238"/><path d="M85.308 100.419h34.648l2.884-23.414H88.192l-2.884 23.414Z" fill="#455A64"/><path d="M101.964 88.714a2.035 2.035 0 0 0 .592 1.484 2.063 2.063 0 0 0 1.48.614 2.16 2.16 0 0 0 1.504-.613 2.14 2.14 0 0 0 .644-1.485 2.063 2.063 0 0 0-2.072-2.102 2.165 2.165 0 0 0-1.503.617 2.143 2.143 0 0 0-.645 1.485Z" fill="#fff"/><path d="m145.944 84.917-17.924 4.665L122 66.689l13.312-3.467 4.616-1.198 1.144 4.362 4.872 18.531Z" fill="#EBEBEB"/><path d="m124.919 70.648 14.601-3.798-.155-.589-14.601 3.798.155.59ZM125.307 72.136l14.601-3.798-.154-.589-14.602 3.798.155.59ZM125.554 73.034l14.639-3.755-.153-.59-14.639 3.754.153.59ZM126.086 75.1l14.601-3.798-.155-.59-14.601 3.799.155.589ZM126.477 76.583l14.601-3.798-.154-.59-14.602 3.799.155.589ZM126.868 78.067l14.602-3.798-.155-.589-14.601 3.798.154.59ZM127.129 78.945l14.639-3.754-.153-.59-14.639 3.753.153.591ZM127.648 81.038l14.601-3.798-.154-.589-14.602 3.798.155.59ZM127.915 81.906l14.639-3.754-.153-.59-14.639 3.754.153.59ZM128.427 84.006l14.601-3.798-.155-.59-14.601 3.799.155.589ZM128.701 84.864l14.639-3.754-.153-.59-14.639 3.754.153.59ZM129.095 86.338l14.639-3.754-.153-.59-14.639 3.754.153.59Z" fill="#DBDBDB"/><path d="m150.704 91.524-18.5 1.027-1.328-23.625 13.736-.764 5.016 4.234 1.076 19.128Z" fill="#EBEBEB"/><path d="m144.612 68.162 5.016 4.234-4.764.267-.252-4.501ZM132.944 73.387l10.284-.572-.035-.608-10.284.572.035.608ZM133.03 74.919l10.284-.572-.034-.608-10.284.572.034.608ZM133.116 76.454l10.284-.572-.034-.608-10.284.572.034.608ZM133.201 77.98l15.069-.837-.035-.608-15.068.838.034.608ZM133.284 79.516l15.068-.838-.034-.608-15.069.838.035.608ZM133.374 81.048l15.068-.838-.034-.608-15.068.838.034.608ZM133.456 82.576l15.068-.839-.034-.608-15.068.838.034.609ZM133.546 84.107l15.069-.838-.035-.608-15.068.838.034.608ZM133.629 85.642l15.068-.838-.034-.608-15.069.838.035.608ZM133.719 87.174l15.068-.838-.034-.608-15.069.838.035.608ZM133.805 88.701l15.068-.838-.034-.608-15.068.839.034.608ZM133.891 90.233l15.068-.838-.034-.608-15.068.838.034.608Z" fill="#DBDBDB"/><path d="M127.268 106.401a6.094 6.094 0 0 0 1.638 4.151 6.155 6.155 0 0 0 4.038 1.935h34.732a7.23 7.23 0 0 0 5.19-1.861 7.147 7.147 0 0 0 .478-10.131 7.223 7.223 0 0 0-4.992-2.336 12.054 12.054 0 0 0-3.019-7.593 12.163 12.163 0 0 0-7.183-3.948 12.197 12.197 0 0 0-8.067 1.499 12.095 12.095 0 0 0-5.267 6.26 7.23 7.23 0 0 0-6.826.194 7.179 7.179 0 0 0-2.529 2.437 7.145 7.145 0 0 0-1.065 3.34 6.152 6.152 0 0 0-5.343 1.718 6.08 6.08 0 0 0-1.785 4.335Z" fill="#FF4669"/><path opacity=".1" d="M127.268 106.401a6.094 6.094 0 0 0 1.638 4.151 6.155 6.155 0 0 0 4.038 1.935h34.732a7.23 7.23 0 0 0 5.19-1.861 7.147 7.147 0 0 0 .478-10.131 7.223 7.223 0 0 0-4.992-2.336 12.054 12.054 0 0 0-3.019-7.593 12.163 12.163 0 0 0-7.183-3.948 12.197 12.197 0 0 0-8.067 1.499 12.095 12.095 0 0 0-5.267 6.26 7.23 7.23 0 0 0-6.826.194 7.179 7.179 0 0 0-2.529 2.437 7.145 7.145 0 0 0-1.065 3.34 6.152 6.152 0 0 0-5.343 1.718 6.08 6.08 0 0 0-1.785 4.335Z" fill="#000"/><path d="M125.116 106.401a6.088 6.088 0 0 0 1.641 4.153 6.15 6.15 0 0 0 4.043 1.933h34.732a7.23 7.23 0 0 0 5.19-1.861 7.147 7.147 0 0 0 .478-10.131 7.223 7.223 0 0 0-4.992-2.336 12.053 12.053 0 0 0-3.024-7.589 12.161 12.161 0 0 0-7.182-3.945 12.197 12.197 0 0 0-8.064 1.496 12.1 12.1 0 0 0-5.27 6.257 7.221 7.221 0 0 0-8.142 1.185 7.15 7.15 0 0 0-2.258 4.785 6.262 6.262 0 0 0-3.357.381 6.11 6.11 0 0 0-3.335 3.322 6.076 6.076 0 0 0-.46 2.35Z" fill="#FF4669"/><path d="M152.3 102.067h-6.268v5.353h6.268v-5.353ZM143.88 102.067h10.572l-5.288-5.245-5.284 5.245Z" fill="#fff"/><path d="M99.636 102.453h-.4v.796h.4v-.796ZM99.636 104.551h-.4v1.735h.4v-1.735ZM100.236 108.582h-1v-.995h.4v.597h.6v.398ZM119.164 108.582H117.6v-.398h1.548l.016.398Zm-2.704 0h-1.548v-.398h1.548v.398Zm-2.704 0h-1.548v-.398h1.548v.398Zm-2.704 0h-1.548v-.398h1.548v.398Zm-2.704 0H106.8v-.398h1.548v.398Zm-2.704 0H104.1v-.398h1.544v.398Zm-2.704 0h-1.544v-.398h1.544v.398ZM121.12 108.184h-.8v.398h.8v-.398Z" fill="#263238"/><path d="M99.436 103.241a.75.75 0 0 0 .752-.748.75.75 0 0 0-.752-.748.75.75 0 0 0-.752.748.75.75 0 0 0 .752.748ZM121.084 109.132a.75.75 0 0 0 .752-.749.75.75 0 0 0-.752-.748.75.75 0 0 0-.752.748.75.75 0 0 0 .752.749ZM177.16 99.611h-.8v.398h.8v-.398ZM198.616 100.009h-1.532v-.398h1.532v.398Zm-2.684 0H194.4v-.398h1.532v.398Zm-2.68 0h-1.532v-.398h1.532v.398Zm-2.68 0h-1.536v-.398h1.536v.398Zm-2.684 0h-1.532v-.398h1.532v.398Zm-2.68 0h-1.532v-.398h1.524l.008.398Zm-2.684 0h-1.532v-.398h1.532v.398Zm-2.68 0h-1.532v-.398h1.532v.398ZM200.764 100.606h-.4v-.597h-.6v-.398h1v.995ZM200.764 101.629h-.4v1.365h.4v-1.365ZM200.764 104.021h-.4v.796h.4v-.796Z" fill="#263238"/><path d="M176.4 100.559a.757.757 0 0 1-.695-.462.745.745 0 0 1 .548-1.02.757.757 0 0 1 .772.318.743.743 0 0 1-.093.945.756.756 0 0 1-.532.219ZM200.564 105.53a.75.75 0 0 0 .752-.749.75.75 0 0 0-.752-.748.75.75 0 0 0-.752.748.75.75 0 0 0 .752.749Z" fill="#263238"/><path d="m168.172 82.78 17.744 12.995 8.724-11.817-17.748-12.999-8.72 11.821Z" fill="#EBEBEB"/><path d="m169.452 82.585 16.272 11.916 7.636-10.348-16.276-11.916-7.632 10.348Z" fill="#fff"/><path d="M176.18 76.543a2.183 2.183 0 0 0 .839 3.28 2.21 2.21 0 0 0 2.416-.366 2.182 2.182 0 0 0-.179-3.38 2.212 2.212 0 0 0-2.442-.11 2.196 2.196 0 0 0-.634.576ZM174.492 86.302 185.7 94.51l-.012-11.661-11.196 3.454Z" fill="#DBDBDB"/><path d="m170.096 83.087 9.256 6.777-.988-8.31-8.268 1.532Z" fill="#EBEBEB"/><path d="m155.396 86.736 20.36 8.378 5.616-13.56-20.364-8.374-5.612 13.556Z" fill="#EBEBEB"/><path d="m156.592 86.243 18.668 7.677 4.916-11.868-18.672-7.682-4.912 11.873Z" fill="#fff"/><path d="M161.664 78.768a2.182 2.182 0 0 0 .485 2.384 2.204 2.204 0 0 0 3.383-.343 2.177 2.177 0 0 0-.007-2.432 2.195 2.195 0 0 0-1.832-.967 2.21 2.21 0 0 0-1.554.646 2.19 2.19 0 0 0-.475.712ZM162.38 88.643l12.864 5.293-2.828-11.32-10.036 6.027Z" fill="#DBDBDB"/><path d="m157.336 86.573 10.62 4.37-2.964-7.833-7.656 3.463Z" fill="#EBEBEB"/><path d="M139.955 118.835c.878-4.6-2.158-9.037-6.781-9.91-4.623-.873-9.082 2.148-9.96 6.747-.877 4.6 2.159 9.037 6.782 9.91 4.622.874 9.082-2.147 9.959-6.747Z" fill="#455A64"/><path d="m136.294 112.94-11.283 2.893 1.844 7.119 11.283-2.893-1.844-7.119Z" fill="#fff"/><path d="M136.288 112.236c-.34.549-.696 1.083-1.04 1.628-.344.545-.708 1.074-1.064 1.592-.356.517-.748 1.106-1.12 1.659l-.036.052-1 1.457-.052.068-.076-.036-1.6-.796-.056-.028c-.6-.295-1.199-.596-1.796-.904-.572-.286-1.144-.585-1.716-.879a64.162 64.162 0 0 1-1.708-.916c.58.247 1.156.51 1.732.769.576.258 1.16.525 1.736.796.64.294 1.284.601 1.928.911l1.444.693c.304-.438.608-.876.916-1.306.4-.581.82-1.158 1.236-1.731.416-.573.74-1.027 1.116-1.536.376-.51.768-.988 1.156-1.493Z" fill="#DBDBDB"/><path d="m130.492 117.808-.14.195c-.22.31-.448.613-.684.911a36.846 36.846 0 0 1-1.812 2.118c-.32.342-.636.676-.976.995.264-.398.544-.756.832-1.119.288-.362.588-.72.884-1.078.296-.358.612-.701.928-1.039.252-.275.508-.545.776-.796l.188-.179.004-.008ZM138.068 119.125c-.456-.111-.904-.25-1.344-.398-.44-.147-.884-.298-1.32-.453a28.57 28.57 0 0 1-1.304-.51 21.598 21.598 0 0 1-1.04-.457l-.22-.104h.02l.252.068c.36.095.716.207 1.072.318.444.143.88.299 1.32.458a28.254 28.254 0 0 1 2.564 1.078Z" fill="#DBDBDB"/><path d="M136.872 112.093a1.857 1.857 0 0 1-.682 1.959 1.88 1.88 0 0 1-2.82-.671 1.86 1.86 0 0 1 1.21-2.622 1.892 1.892 0 0 1 1.423.196c.43.25.742.659.869 1.138Z" fill="#FF4669"/><path d="m134.96 113.032-.4-1.469a.215.215 0 0 1-.006-.08.221.221 0 0 1 .026-.076.222.222 0 0 1 .053-.061.224.224 0 0 1 .154-.041.202.202 0 0 1 .076.026.193.193 0 0 1 .061.053.195.195 0 0 1 .036.072l.4 1.473a.209.209 0 0 1-.019.155.218.218 0 0 1-.053.06.208.208 0 0 1-.23.013.208.208 0 0 1-.098-.125Zm.432.824a.207.207 0 0 1-.252-.147l-.02-.076a.21.21 0 0 1 .148-.251.205.205 0 0 1 .248.148v.075a.198.198 0 0 1-.023.133.197.197 0 0 1-.101.09v.028Z" fill="#fff"/><path d="M45.9 87.082H23.62v21.305H45.9V87.082Z" fill="#DBDBDB"/><path d="M54.368 87.082H45.9v21.305h8.468V87.082ZM23.62 97.733H45.9l-17.4.55-4.88-.55ZM45.9 105.812H23.62l17.4.546 4.88-.546ZM23.62 91.779h14.112l-12.544.446-1.568-.446ZM45.9 102.676H31.788l12.544.446 1.568-.446ZM28.964 89.407H44.88l-2.652.266-13.264-.266ZM25.784 100.017h15.92l-2.656.267-13.264-.267Z" fill="#C7C7C7"/><path d="M35.572 93.805H45.9l1.844.716-12.172-.716ZM20.776 93.805H31.1l1.844.716-12.168-.716ZM34.024 103.38H23.696l-1.844.717 12.172-.717Z" fill="#DBDBDB"/><path d="M45.9 100.949h8.292l1.844.716-10.136-.716ZM48.792 97.733h6.432l-.856-.585-5.576.585Z" fill="#C7C7C7"/><path d="m59.316 98.366-1.328 16.612h-9.184l-1.328-16.612h11.84Z" fill="#FF4669"/><path d="M60.104 96.865h-13.5v2.424h13.5v-2.424Z" fill="#455A64"/><path d="M59.184 96.865H47.532l.68-2.722H58.5l.684 2.722Z" fill="#37474F"/><path d="M56.584 106.819c0 2.157-1.428 3.905-3.2 3.905-1.772 0-3.2-1.748-3.2-3.905s1.428-3.908 3.2-3.908c1.772 0 3.2 1.763 3.2 3.908Z" fill="#fff"/></svg>