<svg width="124" height="31" fill="none" xmlns="http://www.w3.org/2000/svg"><path d="M10.898 7.98v3.094H.176V7.98h10.722ZM3.27 3.322h4.236v18.422c0 .586.082 1.037.246 1.354.176.304.416.51.72.615a3.28 3.28 0 0 0 1.073.158c.293 0 .574-.017.844-.053.27-.035.486-.07.65-.105l.018 3.234c-.352.106-.762.2-1.23.282a9.04 9.04 0 0 1-1.583.123c-.973 0-1.834-.17-2.584-.51-.75-.352-1.336-.92-1.758-1.705-.422-.785-.632-1.828-.632-3.13V3.323ZM18.703 7.98V27H14.45V7.98h4.254Zm-4.535-4.992c0-.644.21-1.177.633-1.6.433-.433 1.031-.65 1.793-.65.75 0 1.341.217 1.775.65.434.423.65.956.65 1.6 0 .633-.216 1.16-.65 1.582-.433.422-1.025.633-1.775.633-.762 0-1.36-.21-1.793-.633-.422-.422-.633-.949-.633-1.582Zm16.945 20.989c.692 0 1.313-.135 1.864-.405a3.53 3.53 0 0 0 1.353-1.16c.352-.492.545-1.06.58-1.705h3.99a5.94 5.94 0 0 1-1.09 3.357c-.703 1.008-1.634 1.811-2.794 2.409-1.16.586-2.444.879-3.85.879-1.453 0-2.719-.247-3.797-.739a7.507 7.507 0 0 1-2.69-2.074 9.129 9.129 0 0 1-1.616-3.041c-.352-1.148-.528-2.379-.528-3.691v-.616c0-1.312.176-2.543.527-3.691.364-1.16.903-2.18 1.618-3.059a7.336 7.336 0 0 1 2.69-2.056c1.077-.504 2.337-.756 3.778-.756 1.524 0 2.86.305 4.008.914a6.75 6.75 0 0 1 2.707 2.514c.668 1.066 1.014 2.308 1.037 3.726h-3.99a4.25 4.25 0 0 0-.527-1.898 3.483 3.483 0 0 0-1.301-1.371c-.55-.34-1.213-.51-1.986-.51-.856 0-1.565.176-2.127.527a3.546 3.546 0 0 0-1.319 1.406 6.854 6.854 0 0 0-.685 1.987 12.963 12.963 0 0 0-.194 2.267v.616c0 .785.065 1.547.194 2.285.129.738.351 1.4.668 1.986a3.889 3.889 0 0 0 1.336 1.389c.562.34 1.277.51 2.144.51ZM46.423 0v27H42.17V0h4.254Zm11.813 7.98-8.279 9.176-4.535 4.64-1.107-3.585 3.427-4.236 5.38-5.995h5.114ZM54.036 27l-6.17-8.93 2.671-2.97L58.94 27h-4.905Zm14.923.352c-1.406 0-2.678-.229-3.815-.686a8.42 8.42 0 0 1-2.882-1.951 8.649 8.649 0 0 1-1.81-2.936c-.423-1.125-.634-2.338-.634-3.638v-.703c0-1.489.217-2.836.65-4.043.434-1.207 1.038-2.239 1.811-3.094a7.78 7.78 0 0 1 2.742-1.987c1.055-.457 2.198-.685 3.428-.685 1.36 0 2.549.228 3.569.685a6.708 6.708 0 0 1 2.53 1.934c.68.82 1.184 1.799 1.513 2.936.34 1.136.51 2.39.51 3.761v1.81H61.874v-3.04h10.512v-.334a5.95 5.95 0 0 0-.457-2.145 3.645 3.645 0 0 0-1.248-1.617c-.563-.41-1.313-.615-2.25-.615-.704 0-1.33.152-1.881.457-.54.293-.99.72-1.354 1.283-.363.563-.644 1.242-.844 2.04-.187.784-.28 1.67-.28 2.653v.704c0 .832.11 1.605.333 2.32a5.545 5.545 0 0 0 1.02 1.846c.445.527.984.943 1.617 1.248.633.293 1.353.44 2.162.44 1.02 0 1.928-.206 2.725-.616a6.243 6.243 0 0 0 2.074-1.74l2.232 2.162c-.41.597-.943 1.172-1.6 1.722-.655.54-1.458.979-2.407 1.319-.938.34-2.028.51-3.27.51ZM88.594 7.98v3.094H77.87V7.98h10.723Zm-7.63-4.658h4.237v18.422c0 .586.082 1.037.246 1.354.176.304.416.51.721.615a3.28 3.28 0 0 0 1.072.158c.293 0 .575-.017.844-.053.27-.035.486-.07.65-.105l.018 3.234c-.352.106-.762.2-1.23.282a9.039 9.039 0 0 1-1.583.123c-.972 0-1.833-.17-2.583-.51-.75-.352-1.337-.92-1.758-1.705-.422-.785-.633-1.828-.633-3.13V3.323Z" fill="#FF4669"/><path d="M105.75 27v3.305H89.719V27h16.031Zm14.115-10.846-11.83-4.412V7.646l15.188 6.522v2.777l-3.358-.79Zm-11.83 3.797 11.865-4.5 3.323-.703v2.76l-15.188 6.539V19.95Z" fill="#797D9A"/></svg>